<?xml version="1.0" encoding="utf-8"?>
<!-- Generator: Adobe Illustrator 23.0.6, SVG Export Plug-In . SVG Version: 6.00 Build 0)  -->
<svg version="1.1" id="Vexillium" xmlns="http://www.w3.org/2000/svg" xmlns:xlink="http://www.w3.org/1999/xlink" x="0px" y="0px"
	 viewBox="0 0 841.89 1190.55" style="enable-background:new 0 0 841.89 1190.55;" xml:space="preserve">
<style type="text/css">
	.st0{fill-rule:evenodd;clip-rule:evenodd;fill:#FFFFFF;}
</style>
<g>
	<path class="st0" d="M125.11,60.3c7.13,1.66,14.61,1.48,21.56,4.1c0.67,0.25,1.39,0.48,2.1,0.54c9.76,0.8,19.57,1.12,29.25,2.48
		c7.56,1.06,15.4,1.12,22.58,4.35c0.65,0.29,1.52,0.25,2.26,0.14c11.87-1.77,23.27,3.24,35.1,2.42c3.25-0.22,6.96-1.25,9.56,2.2
		c0.28,0.37,1.5,0.15,2.25,0.03c4.44-0.66,8.05-4.24,13.61-0.79c3.66,2.27,9.72,0.72,14.7,0.79c5.04,0.07,10.11-0.37,15.11,0.09
		c12.84,1.18,25.61,2.8,38.59,2.35c13.09-0.45,26.21-0.1,38.76-0.1c1.37,1.37,2.19,2.19,3.43,3.43c0,2.97,0,6.34,0,9.72
		c6.27,14.66,15.54,26.31,31.16,33.39c-0.02,0,1.33,0.37,2.26-0.09c1.32-0.65,2.34-1.91,3.87-3.24c0-1.99,0-4.26,0-6.52
		c0-3.44,0-6.87,0-10.36c-10.21-3.26-18.1-9.29-25.15-18.25c-0.22-1.03,0.03-3.81-1.25-5.15c-5.38-5.62-3.4-13.28-5.75-19.76
		c-1.39-3.85,1.31-9.37,2.34-13.9c1.39-6.07,4.9-12.37,9.23-16.92c8.81-9.25,20.28-14.19,33.14-15.11
		c11.44-0.82,21.85,1.38,31.17,9.09c6.97,5.77,12.4,13.32,14.57,22.14c1.97,8,3.27,15.36,0.37,23.71
		c-2.52,7.26-4.28,15.14-8.45,19.17c-4.87,4.7-8.91,10.34-15.39,13.31c-1.94,0.89-3.27,3.11-4.09,3.93
		c0.91,5.28,1.67,9.61,2.69,15.55c0.12,0.13,1.4,1.47,3.19,3.33c2.07-1.75,3.63-3.29,5.4-4.53c9.85-6.89,18.41-17.09,23.56-28.24
		c0.6-1.3,1.73-2.55,1.81-3.87c0.33-5.86,4.36-9.28,8.23-13.15c4.07,0,8.32,0.2,12.54-0.06c3.21-0.2,6.04,1.34,9.32,1.37
		c2.86,0.03,4.85-2.06,7.79-1.46c3.35,0.68,6.95,0.16,10.44,0.16c3.1,0,6.2,0,9.3,0c3.49,0,6.98,0,10.47,0
		c3.1,0,6.51,0.85,9.25-0.15c10.04-3.67,20.43-0.91,30.46-2.38c8.99-1.31,17.9-2.75,26.97-2.02c2.65,0.21,3.76-5.33,6.82-1.61
		c2.79,3.39,3.72-2.62,6.69-1.04c2.11,1.13,5.65,1.03,7.96,0.06c6.18-2.6,12.8-0.95,18.79-2.48c5.96-1.52,11.87-1.22,17.69-2.2
		c8.17-1.38,16.03-4.85,24.21-5.84c6.75-0.82,13.25-4.82,21.2-2.58c-3.06,6.22-7.36,10.23-12.61,13.22
		c-7.51,4.28-15.04,8.56-22.75,12.46c-14.6,7.41-27.62,17.38-41.76,25.52c-3.74,2.16-7.4,5.38-11.41,5.96
		c-5.76,0.83-10.25,3.78-14.8,6.5c-9.95,5.95-20.22,11.31-29.95,17.74c-11.06,7.3-23.56,12.12-36.49,15.68
		c-9.69,2.67-19.19,6.05-28.71,9.28c-1.69,0.57-3.08,1.99-4.99,3.28c1,3.92,1.98,7.76,3.19,12.52c-5.68,0-10.9,0-16.9,0
		c0,5.24,0,9.69,0,14.88c-5.95-1.89-11.3-6.05-16.29,0.95c0,2.76,0,6.14,0,10.93c-2.62-1.46-4.5-2.2-5.98-3.41
		c-2.6-2.13-4.38-5.71-9.08-4.07c-2.24,4.37-4.65,9.08-7.03,13.72c-6.61,0.38-4.72-7.35-9.17-9.11c-2.47,2.71-5.01,5.5-7.88,8.65
		c-3.06,8.55,2.44,16.47,5.5,26.3c4.32,4.01,9.85,9.13,14.68,13.6c6.81,0,12.21,0,17.98,0c3.11,8.27,6.24,16.59,9.53,25.37
		c-4.35,0-9.57,0-16.36,0c2.79,5.97,4.99,10.68,7.47,15.98c-6.31,2.17-11.78-1.57-17.53-3.5c-0.82,0.82-1.64,1.64-2.54,2.54
		c0.23,0.5,0.58,1.01,0.7,1.57c1.86,8.71,7.32,15.62,11.56,23.12c3.02,5.33,6.37,10.47,9.94,16.29c6.24,1.64,14.3-2.32,20.82,2.24
		c-0.74,4.13-1.34,7.54-2.11,11.87c5,0,9.18-0.17,13.34,0.05c3.44,0.19,7.88,2.41,10.06,0.98c4.83-3.18,7.24,2.83,11.55,1.54
		c3.92-1.17,8.46-0.25,12.72-0.25c3.88,0,7.75,0,11.63,0c4.21,0,8.42,0,13.44,0c0,12.6,0,24.8,0,36.99
		c6.44,0.93,7.01-6.33,12.81-6.9c0.34,1.45,0.5,3.09,1.12,4.52c0.72,1.66,1.86,3.15,2.8,4.68c2.73-1.42,5.19-2.7,7.66-3.98
		c4.61,10.34,15.17,13.05,24.4,17.53c0.04,5.01-3.9,2.1-5.88,3.06c-10.77,5.29-22.84,8.44-30.56,19.19c-4-2.68-7.61-5.1-12.25-8.22
		c-0.37,6.57-0.12,12.62-0.17,18.65c-0.05,6.15-0.01,12.29-0.01,19c-8.72,5.04-18.21,0.99-27.45,2.93c0,2.36,0,4.95,0,8.05
		c-6.11,3.42-11.89,7.26-18.16,9.88c-2.71,1.13-4.49,2.18-5.58,4.74c-1.96,4.65-6.83,7.62-7.04,13.4
		c-0.41,11.5-5.4,22.32-4.73,34.13c0.68,11.98,0.15,24.03,0.15,36.05c0,2.71,0.17,5.44-0.03,8.14c-1.2,16.53-2.34,33.02-8.58,48.76
		c-1.83,4.62-1.04,10.26-5.14,14.16c-0.67,10.71-8.12,17.99-14.22,25.41c-7.57,9.21-15.9,18.13-27.7,22.6
		c-3.31,1.25-6.14,3.78-8.82,5.48c0,46.1,0,92.12,0.07,138.14c0,0.55-1.44,20.22,4.43,30.18c19.15,2.09,36.98,8.96,54.34,17.13
		c9.96,4.68,18.37,11.87,27.44,18.01c8.13,5.49,13.33,13.78,19.96,20.69c4.02,4.19,6.99,9.42,10.28,14.29
		c3.68,5.43,7.65,10.74,10.64,16.53c2.94,5.7,5.37,11.77,7.93,17.62c2.66,6.06,3.19,12.53,5.74,18.57c2.5,5.93,2.36,13.13,2.62,19.8
		c0.25,6.38,3.68,12.13,2.54,18.82c-3.38,19.74-4.88,39.65-13.1,58.57c-5.33,12.27-12.6,22.88-20.21,33.46
		c-4.17,5.79-8.65,11.61-14.02,16.22c-9.26,7.94-19.37,14.9-29.03,22.38c-3.2,2.48-7.78,1.44-10.74,5.5
		c-1.7,2.34-6.93,1.79-9.88,3.63c-9.35,5.84-20.17,7.63-30,11.84c-4.95,2.12-10.9-1.05-14.67,3.92c-7.3-1.59-14.11,2.89-21.12,2.16
		c-14.94-1.56-29.79-3.34-44.46-7.53c-10.81-3.09-20.85-7.88-31.39-11.46c-8.38-2.84-16.06-8.4-23.29-13.76
		c-7.59-5.63-14.96-11.85-21.21-18.89c-13.62-15.34-25.37-31.87-31.71-51.96c-2.01-6.37-6.32-12.11-7.14-19.12
		c-0.12-0.99-1.6-2.04-1.42-2.82c1.54-6.62-2.68-12.41-2.47-18.83c0.2-6.2-0.25-12.42,0.14-18.6c0.32-5.13,1.54-10.21,2.21-15.33
		c0.62-4.74-0.53-9.41,2.04-14.31c2.26-4.33,0.92-10.46,2.91-15.04c1.86-4.27,3.68-8.54,5.35-12.91c2.18-5.68,5.04-11.1,7.29-16.75
		c3.34-8.39,9.04-15.16,14.93-21.69c6.48-7.19,13.21-14.28,20.6-20.48c6.1-5.12,12.62-9.8,19.7-13.9
		c7.5-4.35,15.95-6.83,22.96-12.34c3.73-2.94,9.21-4.03,14.08-5.04c8.18-1.71,15.5-6.98,23.88-5.41c1.29-1.29,2.8-2.09,2.83-2.94
		c0.34-10.51,0.87-20.95,0.87-31.61c0-2.03-0.14-4.58-0.14-6.9c0-36.05-0.04-72.11,0.06-108.16c0.01-3.59,0.9-7.19,2.26-10.66
		c0-0.39,0.17-0.97-0.03-1.14c-3.09-2.63-2.17-6.21-2.3-9.61c-12.54-4.23-23.95-10.3-33.67-19.61
		c-8.71-8.35-16.49-17.33-21.23-28.47c-3.97-9.35-8.46-18.59-8.02-29.29c0.2-5.13-1.59-10.38-2.79-15.17
		c-1.12-4.46-1.84-8.77-1.63-13.13c0.45-9.52-3.49-18.48-2.63-28.13c0.86-9.61,0.19-19.37,0.19-29.06c0-9.69,0.24-19.39-0.13-29.07
		c-0.13-3.54-1.68-7.02-2.43-9.9c-5.58-9.94-15.67-10.9-25.09-13.82c0-4.19,0-8.35,0-13.02c-9.93,0-19.5,0-28.45,0
		c-5.25-4.48-4.36-9.9-4.38-15.05c-0.03-8.09-0.01-16.18-0.01-25.57c-4.56,1.95-8.34,3.58-12.16,5.22c-2.4-3.14-4.83-6.3-7.37-9.61
		c-2.97,1.07-5.67,2.04-9.13,3.28c-6.23-8.8-16.18-12.4-26.31-18.12c11.01-3.59,20.37-7.32,27.94-14.55
		c1.28-1.22,4.39-0.54,7.39-0.8c1.78-2.12,3.99-4.75,6.05-7.21c4.4,2.95,8.02,5.38,12.63,8.47c2.15-12.17,0.15-23.58,1.25-35.37
		c22.51,0,45.23,0,65.78,0c7.8-2.5,5.36-7.61,6.29-11.31c2.97-1.19,5.68-2.29,9.03-2.14c3.61,0.16,7.28-1.01,11.06-1.62
		c4.92-12.6,12.42-23.78,21.88-33.79c-0.99-1.81-1.84-3.38-2.73-5c0.95-1.93,1.9-3.85,3.37-6.81c-6.13,0-11.34,0-18.06,0
		c2.68-3.28,4.37-5.35,5.99-7.35c-5.11-5.5-10.36-5.51-17.52-0.64c2.92-9.66,5.15-17.04,7.41-24.5c14.07-0.62,25.99-4.9,34.89-15.36
		c6.95-8.17,8.05-18.03,7.08-28.37c-3.06-1.87-4.14-7.06-11.2-4.65c-1.19,1.18-3.84,3.83-6.57,6.56
		c-7.15-2.66-4.71-10.66-9.37-14.82c-3.34,1.68-6.85,3.46-10.99,5.54c-1.99-4.81-3.88-9.34-5.84-14.06
		c-4.55,1.76-8.65,3.34-13.57,5.24c0-4.66,0-8.02,0-8.66c-2.11-3.71-3.05-5.38-3.88-6.83c-4.43,2.17-7.95,3.89-12.8,6.27
		c1-7.15,1.84-13.1,2.76-19.62c-5.28-1.78-9.65-3.41-14.11-4.71c-11.76-3.42-22.86-8.21-34.08-13.24
		c-13.75-6.17-27.05-13.25-40.77-19.44c-5.89-2.66-11.64-5.79-17.07-9.3c-14.97-9.66-30.05-19.16-45.32-28.31
		c-7.28-4.36-15.36-7.9-23.33-10.94c-14.43-5.52-28.35-12-42.15-18.84C125.11,61.85,125.11,61.07,125.11,60.3z M452.92,865.48
		c0.15-0.15,0.3-0.3,0.46-0.45c-0.54-0.64-1.08-1.27-1.62-1.9c-0.25,0.24-0.49,0.49-0.74,0.73c0.64,0.54,1.27,1.08,2.32,1.14
		c-0.15,0.15-0.3,0.3-0.45,0.45c0.54,0.63,1.08,1.27,1.62,1.9c0.25-0.25,0.49-0.49,0.74-0.73
		C454.62,866.08,453.98,865.54,452.92,865.48z M418.48,644.44c-0.15-0.15-0.3-0.3-0.45-0.45c-0.64,0.54-1.27,1.08-1.9,1.62
		c0.25,0.24,0.49,0.49,0.74,0.73c0.54-0.63,1.08-1.27,1.13-2.32c0.15,0.15,0.3,0.3,0.45,0.45c0.64-0.54,1.27-1.08,1.9-1.62
		c-0.25-0.25-0.49-0.49-0.74-0.73C419.08,642.75,418.54,643.38,418.48,644.44z M364.73,595.37c-0.78,0.78-1.55,1.55-5.05,8.08
		c1.83-1.69,2.69-2.15,2.64-2.49c-0.16-1.11-0.65-2.18-1.01-3.26c-0.4,1.4-0.8,2.8,1.08,0c0.77-0.77,1.55-1.55,2.08-2.53
		c0.15,0.15,0.3,0.3,0.45,0.45c0.63-0.54,1.27-1.08,1.9-1.62c-0.24-0.25-0.49-0.49-0.73-0.73
		C365.57,593.9,365.03,594.53,364.73,595.37z M399.63,34.71c-0.78,0.77-1.55,1.55-2.33,2.33c-3.68,0.91-5.03,3.37-4.65,6.98
		c-4.43,2.58-4.5,6.85-4.73,11.28c-0.22,4.34-1.08,8.64-1.74,13.59c3.25,5.85,4.07,13.94,9.96,19.3
		c5.83,5.3,10.25,12.71,21.84,14.49c-7.06-5.92-11.98-10.21-17.07-14.29c-5.73-4.6-7.9-11.23-10.89-17.3
		c1.41-1.41,2.5-2.5,2.98-2.98c8.7-1.15,16.69-2.2,23.64-3.12c5.75,3.67,4.02,7.34,2.03,10.88c3.88,3.78,3.04,11.02,9.48,12.63
		c2.24-3.24,4.28-6.2,6.15-8.92c0-3.22,0-6.24,0-9.77c-3.78-2.01-7.58-4.03-11.4-6.07c0-1.12,0-2.27,0-3.43
		c2.36-0.78,4.73-1.55,6.7-2.2c1.62-11.57-4.79-21.71-1.3-32.28c4.76-2.07,8.61,0.88,12.55,2.55c3.3,1.4,5.98,4.28,9.96,4.02
		c0.78,0.77,1.55,1.55,1.2,0.93c2.68,10.01,11.21,17.05,7.09,27.41c-8.25,0-16.28,0-24.21,0c-0.16,1.16-0.26,1.89-0.36,2.64
		c7.47,6.97,17.28,2.11,25.74,4.69c-1.33,14.41-9.42,23.76-21.26,30.46c0.67,0.67,0.93,1.16,1.22,1.18
		c1.53,0.08,3.07,0.04,4.43,0.04c13.69-10.93,22.52-24.16,20.11-42.64c-1.16-8.88-3.47-17.15-11.63-22.38
		c-0.78-0.77-1.55-1.55-2.33-2.33c-3.28-3.29-6.56-6.57-8.75-8.76c-7.09-1.52-13.06,1.44-17.52-2.26c-2.33,0.62-4.35,1.27-6.41,1.69
		c-6.44,1.32-13.08,2.23-16.18,9.32C401.18,33.15,400.41,33.93,399.63,34.71z M434.32,667.74c0.15-0.15,0.3-0.3,0.45-0.45
		c-0.54-0.64-1.08-1.27-1.62-1.9c-0.25,0.24-0.49,0.49-0.74,0.73c0.64,0.54,1.27,1.08,2.32,1.14c-0.15,0.15-0.3,0.3-0.45,0.45
		c0.54,0.63,1.08,1.27,1.62,1.9c0.25-0.25,0.49-0.49,0.74-0.73C436,668.33,435.37,667.79,434.32,667.74z M371.71,586.07
		c-0.78,0.78-1.55,1.55-2.09,2.54c-0.15-0.15-0.3-0.3-0.45-0.45c-0.63,0.54-1.27,1.08-1.9,1.62c0.25,0.24,0.49,0.49,0.73,0.73
		c0.54-0.63,1.08-1.27,1.38-2.11C370.16,587.62,370.94,586.84,371.71,586.07c0.77-0.77,1.55-1.55,2.33-2.33
		c3.48,0.2,1.97,2.89,2.33,4.65c-3.48,0.2-1.98,2.89-2.33,4.65c-5.28,2.11-6.16,6.85-6.98,11.63c-3.48,0.2-1.98,2.89-5.01,10.29
		c1.78-1.58,2.66-2.04,2.61-2.38c-0.16-1.11-0.65-2.18-1.01-3.26c-0.4,1.4-0.8,2.8,1.09,0c3.48-0.2,1.97-2.89,2.33-4.65
		c5.27-2.11,6.16-6.85,6.98-11.63c3.48-0.2,1.97-2.89,2.33-4.65c1.69-1.24,3.38-2.48,5.12-3.76c-1.54-2.98-2.77-5.35-4.08-7.91
		c-1.22,2.54-2.29,4.78-3.36,7.01C373.26,584.52,372.49,585.3,371.71,586.07z M352.89,463.01c0.15-0.15,0.3-0.3,0.45-0.45
		c-0.54-0.64-1.08-1.27-1.62-1.9c-0.24,0.24-0.49,0.49-0.73,0.73c0.63,0.54,1.27,1.08,7.75,4.07c-1.58-1.78-2.04-2.66-2.38-2.61
		c-1.11,0.16-2.18,0.65-3.26,1.01C354.5,464.25,355.9,464.65,352.89,463.01z M536.88,1021.11c-0.59-0.77-1.17-1.55-1.76-2.33
		c-0.96,0.78-1.93,1.55-2.89,2.33c-1.55,1.42-3.83,2.56-4.5,4.32c-1.52,3.95-2.25,8.21-3.25,12.15c-5.8,3.46-11.42,5.69-18.09,5.07
		c3.99-2.24,7.97-4.48,12.9-7.25c-2.13-1.87-3.9-3.42-5.67-4.98c-0.78-2.57-1.43-5.18-2.4-7.67c-0.28-0.73-1.47-1.1-2.25-1.64
		c-0.6-0.77-1.17-2.19-1.79-2.22c-4.53-0.19-9.08-0.1-13.62-0.1c0.57,0.69,1.15,1.38,1.71,2.07c-2.01,0.5-4.03,1-5.26,1.3
		c1.22,3.41,1.98,5.53,3.47,9.68c-2.6-2.21-3.39-2.88-4.61-3.93c-1.2,2.01-2.36,3.98-4.15,6.98c4.54-0.18,7.36,0,10.81-1.05
		c5.78-1.75,11.69-4.37,18.09-3.42c-1.1,1.49-2.02,4.08-3.31,4.27c-8.33,1.26-15.99,5.73-24.7,5.08c-0.63-0.05-1.3,0.55-1.44,0.6
		c-1.13,3.46-2.14,6.54-3.13,9.6c2.09,3.83,2.09,3.83,2.34,8.37c-5.02,1.79-10.03,3.58-15.01,5.36
		c-4.23-6.29-7.91-11.75-11.21-16.66c-4.59,0.74-8.58,2.05-12.48,1.82c-4.81-0.28-8.58,1.58-12.43,3.59
		c1.76,1.9,3.51,3.78,4.85,5.23c-3.86,3.86-7.1,7.1-9.56,9.56c0,3.88,0,6.19,0,8.55c-3,2.98-6.03,5.98-9.39,9.31
		c0.2,1.73,0.42,3.73,0.6,5.32c7.24-4.5,15.9,1.31,22.17-4.17c7.64,1.38,14.81-2.54,22.24-2.17c7.64,0.38,14.65-2.28,21.96-3.34
		c6.98-1.02,13.68-3.97,20.43-6.04c1.2,1.2,2.29,2.29,4.1,4.11c-6.3,1.79-12.36,2.94-17.93,5.26c-5.45,2.28-11.6,0.5-16.38,2.49
		c-13.03,5.45-27,3.18-40.23,6.46c-5.06,1.26-10.7,0.2-18.21,0.2c-2.28,2.33-5.45,5.58-8.86,9.06c-2.04-1.1-4.82-2.59-7.96-4.28
		c-4.03,9.21-9.71,17.31-16.76,24.4c-0.46,4.38,1.64,9.42-3.04,12.36c-3.71,0-7.08,0-10.6,0c-1.11-9.12-2.18-17.92-3.11-25.53
		c2.94-4.35,5.01-7.39,6.97-10.3c-0.86-1.66-1.86-3.58-2.96-5.72c-3.32,0-7.23,1-10.09-0.3c-2.49-1.14-8.24,0.06-7.2-6.54
		c7.21-0.86,13.36,2.56,19.89,3.67c3.14-2.5,6.58-5.23,10.28-8.17c-1.19-1.29,1.63-4.63-2.48-4.95c-4.74-6.19-7.26-13.25-7.36-20.94
		c-2.74,0-4.67,0-6.6,0c0-1.44,0-2.87,0-3.65c-5.18-1.26-9.36-2.62-13.66-3.26c-6.99-1.05-14.27-0.84-21.01-2.69
		c-4-1.1-8.36-0.83-11.74-2.37c-3.85-1.75-8.07-0.99-11.53-3.01c-3.96-2.3-7.7-4.99-11.89-7.75c3.45-0.45,6.34-0.12,9.76,0.62
		c6.43,1.39,11.49,5.98,18.55,6.12c6.35,0.13,12.59,3.24,19,4.24c6.96,1.09,14.07,1.26,22.41,1.94c1.21-2.89,2.78-6.68,4.07-9.76
		c-3.04-2.13-5.83-4.08-8.61-6.02c1.58-0.82,3.16-1.65,4.76-2.48c1.67,0.93,3.23,1.79,5.28,2.93c1.35-1.37,2.67-2.7,5.03-5.1
		c-5.37,0-8.84,0.3-12.22-0.08c-3.58-0.4-7.62-0.64-10.47-2.48c-2.85-1.85-5.48-2.09-8.45-2.08c-4.99,0-8.59-2.39-13.49-7.58
		c4.37,0.83,6.42,1.22,8.46,1.6c2.3,0.43,4.61,0.84,8.85,1.61c-5.56-4.98-9.44-8.45-13.32-11.93c-7.75,3.55-7.8,3.54-16.32-2.11
		c0.22-0.68,0.44-1.36,0.66-2.04c1.24,0.47,2.44,0.93,3.66,1.39c-2.84-5.52-3.3-10.22-0.22-14.69c-1.55-3.03-3.02-5.89-4.34-8.46
		c1.84-2.51,3.37-4.58,4.9-6.52c2.32-1.25,4.57-2.47,9.26-5c-4.87,0.4-7.1,0.59-9.26,0.77c0,1.88,0,2.98,0,4.08
		c-4.78,0.34-9.31,4.73-14.44,0.09c-4.32-3.91-9.33-7.04-14.04-10.51c1.36-2.74,2.32-4.66,3.36-6.74c-1.95-1.62-3.6-3-6.37-5.3
		c-1.66,5.57-2.95,9.91-4.08,13.68c5.55,3.78,9.9,7.15,14.64,9.84c4.46,2.53,9.34,4.33,14.03,6.44c-13.62,3.24-21.11-7.95-32.27-13
		c-0.21,2.66-0.35,4.47-0.51,6.53c8.64,9.76,21.5,11.28,32.69,16.63c-0.11,0.75-0.27,1.8-0.56,3.78c-11.72-5.23-24.85-6.05-35-19.24
		c2.16,12.45-3.23,21.23-1.8,30.83c0.23,1.54-1.34,3.27-1.79,4.99c-0.37,1.44-0.99,3.57-0.3,4.39c3.97,4.78,1.53,10.29,2.22,15.41
		c0.74,5.5,2.08,10.98,2.15,16.48c0.06,4.76,1.18,9.25,4.38,12.07c2.76,2.43,7.13,3.9,10.9,4.17c11.77,0.84,21.44,6.29,30.97,12.43
		c1.46,0.94,3.39,1.15,10.73,4.39c-1.58-1.78-2.04-2.66-2.38-2.61c-1.11,0.16-2.18,0.65-3.26,1.01c1.4,0.4,2.8,0.8,0-1.09
		c0-1.41,0-2.83,0-4.83c5.75,0.85,10.46,0.32,15.74,2c6.69,2.13,14.12,4.21,21.68,2.91c2.95-0.5,6.07-0.08,9.11-0.08
		c0,1.44,0,2.87,0,4.23c-13.8,1.36-26.59,0.54-39.44-4.81c2.48,8.37,4.58,15.47,6.93,23.4c-2.24,1.11-4.78,2.37-7.04,3.49
		c-2.7-2.33-4.65-4.01-7.07-6.1c-2.35,2.12-4.49,4.05-5.78,5.22c-8.69-2.54-16.15-4.71-25.25-7.37c4.42,5.84,7.75,10.23,11.01,14.54
		c1.57-1.2,2.44-1.86,2.91-2.21c3.29,0.81,6.38,0.98,8.77,2.35c2.2,1.26,5.72,3.13,2.33,7.27c-3.32-1.59-6.57-3.13-11.15-5.31
		c2.58,7.27,8.02,9.85,11.38,14.26c4.93-5.55,9.75-0.82,14.55,0.14c-0.65-7.43-6.89-9.14-10.71-12.6c1-2.05,1.92-3.95,2.48-5.09
		c3.61-1.19,6.67-2.26,9.77-3.2c4.68-1.43,8.53,1.12,12.57,2.75c-0.13,4.96,6.06,3.59,7.16,7.07c0,3.55,0,6.92,0,11.08
		c-5.48,0-10.71,0-15.93,0c-0.01,0.54-0.01,1.07-0.02,1.61c4.36,0.25,8.73,0.5,13.45,0.78c1.03,1.67,2.14,3.47,3.8,6.16
		c-2.49,0.25-3.93,0.63-5.32,0.47c-1.77-0.21-3.46-1.03-5.23-1.31c-6.15-0.98-11.9-4.15-18.58-3.04c0.15-0.15,0.3-0.3,0.45-0.45
		c-0.54-0.64-1.08-1.27-1.62-1.9c-0.24,0.24-0.49,0.49-0.73,0.73c0.63,0.54,1.27,1.08,2.11,1.38c2.42,2.03,4.71,4.24,7.29,6.05
		c2.73,1.91,5.73,3.43,8.65,5.13c0.35-1.67,0.57-2.73,0.8-3.88c7.52,4.55,16.51-0.63,23.7,4.33c22.01-0.2,44.01-0.4,66.02-0.68
		c0.55,0,1.1-1.03,0.75-0.67c3.17,0.5,6.14,1.99,7.92,1.1c7.97-4.01,16.33-4.57,24.94-4.43c4.83,0.08,9.72,0.6,14.22-2.18
		c0.88-0.55,2.65,0.33,3.95,0.55c-0.09,1.46-0.14,2.21-0.19,2.97c-4.18,1.12-8.51,3.53-12.54,3.11c-11.17-1.15-21.12,3.93-31.75,5.4
		c-10.15,1.4-19.63,3.1-29.59-0.34c-2.66-0.92-6.81-0.95-8.88,0.55c-4.1,2.95-8.96,2.5-12.04,1.24c-6.39-2.61-12.65-1.47-18.96-1.95
		c-5.54-0.43-11.25,1.2-16.57-2.17c-1.57-1-4.31-0.15-7.22-0.15c6.37,7.98,15.82,1.82,22.04,6.98c12.22-1.3,24.15,1.93,36.25,2.18
		c5.08,0.1,10.18-1.72,15.32-2.09c5.4-0.39,10.87,0.22,16.27-0.17c5.52-0.4,11.28-0.65,16.4-2.48c4.74-1.7,10.05-0.63,14.01-2.59
		c6.85-3.39,13.16-1.02,19.38-1.55c0.4,1.97,0.62,3.03,0.82,4.04c1.88-0.74,3.71-1.05,5-2.05c5.09-3.95,11.97-5.52,15.09-11.62
		c7.09,0.77,7.1-4.32,8.01-9.02c2.51-0.14,5.11-0.29,8.07-0.45c1.07-1.63,2.26-3.43,3.44-5.23c-9.1,0.59-17.77,0.96-25.7,3.88
		c3.15,2.58,6.02,4.92,8.66,7.07c-1.2,1.81-1.79,2.71-2.1,3.8c-4.36-0.05-7.41,2.65-10.79,4.85c-1.75,1.14-4.07,2.05-6.06,1.93
		c-1.44-0.09-2.75-2.07-2.89-2.19c0.4-3.84,0.68-6.49,1.05-10.03c-5.51,1.22-9.75,2.56-14.09,3.01c-4.6,0.48-9.29,0.1-13.94,0.11
		c-0.37,0-0.9-0.06-1.09,0.15c-3.77,4.3-9.25,0.35-12.94,2.39c-4.77,2.64-9.49,1.69-14.27,2.13c-9.66,0.88-19.57-2.06-29.05,1.78
		c-2.16-3.87-3.34,1.21-5.28,0.58c-2.18-0.71-4.5-1.02-6.38-1.42c-1.27,0.63-2.23,1.11-3,1.5c-4.13-1.84-7.96-3.55-11.78-5.26
		c4.33-1.05,8.07-3.1,12.28-0.57c2.31,1.39,6.45,1.96,8.71,0.81c6.6-3.33,13.4-1.47,20.07-2.12c8.2-0.8,16.76,2.17,24.61-2.31
		c12.84,0.92,24.85-4.81,37.6-4.74c1.06,0,2.13-1.29,2.87-1.77c2.69,1.49,4.88,2.72,7.06,3.93c1.18-2.05,2.44-4.25,3.86-6.73
		c2.43,0,4.84,0.52,6.93-0.09c10.01-2.91,19.93-6.09,29.87-9.23c3.76-1.19,7.49-4.49,10.53-9.11c-1.31,0.42-9.81-0.12-11.94-0.06
		c-2.1,0.05-4.14,1.2-6.27,1.59c-6.12,1.11-8.02,7.78-13.32,10.05c-6.81-4.66-18.06-2.06-20.57-13.06c0.73-1.1,1.53-2.29,2.82-4.25
		c-1.8-1.21-3.34-2.24-4.85-3.26c-0.49,0.4-1.31,1.21-2.25,1.83c-4.73,3.12-11.15,0.45-15.04,2.77c-5.46,3.25-10.96,0.8-16.31,2.88
		c-5.04,1.95-11.21,1.05-16.89,1.32c-2.32,0.11-5.19-0.86-6.88,0.17c-7.24,4.46-14.74,0.86-22.24,2.55c0-2.19,0-3.24,0-4.69
		c27.26-1.35,53.95-5.85,81.38-10.41c1.63-1.83,3.67-4.14,5.61-6.32c1.84,0,3.37,0,5.16,0c0.3-1.06,0.58-2.09,0.92-3.31
		c3.54-1.94,7.31-4.02,10.86-5.97c0-3.42,0-6.29,0-9.83c-9.24,3.72-17.33,9.63-30.19,6.15c14.93-4.55,27.13-9.08,40.28-11.8
		c-0.3,1.52-0.51,2.58-0.7,3.53c-2.4,0.38-4.46,0.7-4.62,0.72c0.43,1.38,1.04,3.34,1.79,5.73c3.13-2.69,4.87-4.81,7.11-5.93
		c2.09-1.05,4.7-1.04,7.12-1.5c0.76,0.59,1.95,1.5,3.07,2.37c-0.98,1.12-1.73,1.97-2.7,3.09c1.24,2.49,2.49,5.02,3.4,6.85
		c4.53-1.76,8.86-3.44,13.19-5.13c0-1.15,0-2.31,0-3.48c0.78-0.77,1.55-1.55,2.33-2.33c0.64-0.25,1.74-0.38,1.83-0.75
		c1.03-4.38,1.9-8.8,2.82-13.2c2.33-1.55,4.65-3.1,6.98-4.65c2.48,0.37,4.82-0.1,5.86-2.49c0.82-1.86,0.88-4.06,1.24-5.95
		c-2.2-0.91-3.68-1.52-6.49-2.68c3.86-3.36,6.54-5.7,10.48-9.13c-4.79,0.8-7.67,1.28-10.56,1.76c1.87-3.38,4.55-5.09,6.91-7.17
		c1.01-0.88,1.37-2.5,2.57-4.88c-6.22,3.06-10.95,5.39-15.95,7.86c-0.54-1.59-0.89-2.61-1.29-3.81c5.6-3.37,11.07-6.66,16.62-10
		c-0.13-1.75-0.26-3.56-0.49-6.63c-8.5,11.55-20.59,12.7-30.43,17.2c-1.73,1.72-3.46,3.45-4.81,4.79c0.41,0.14,1.76,0.6,3.02,1.04
		c0.06,4.37,1.11,8.86-4.38,10.84c-3.11-1.53-6.32-3.12-9.53-4.71c0-1.55,0-3.1,0-4.65c0.78-0.59,1.55-1.17,2.33-1.76
		C538.43,1023.04,537.66,1022.08,536.88,1021.11z M488.03,637.25c-3.48,0.2-1.98,2.89-2.33,4.65c-5.45,3.36-7.59,9.46-11.58,14.04
		c-0.38,0.44-0.05,1.49,0.19,2.46c-0.15-0.15-0.3-0.3-0.45-0.45c-0.64,0.54-1.27,1.08-1.9,1.62c0.25,0.24,0.49,0.49,0.74,0.73
		c0.54-0.63,1.08-1.27,1.38-2.11c6.23-3.74,10.75-8.72,11.63-16.28C489.19,641.71,487.68,639.01,488.03,637.25
		c0.78-0.77,1.55-1.55,2.33-2.33c5.57-3.31,4.58-8.81,4.65-13.96c7.15-6.64,8.07-16.29,8.82-24.57c1.36-15.08,4.34-30.16,2.91-45.49
		c-0.58-6.15-0.1-12.39-0.1-18.59s-0.68-12.5,0.2-18.57c0.76-5.23,1.35-10.51,2.04-15.74c1.97-14.96,8.05-26.89,22.54-33.34
		c2.64-1.18,4.96-3.09,8.1-5.09c0-4.22,0-8.65,0-13.46c8.85,0,16.88,0,24.64,0c1.29-1.47,2.26-2.58,3.53-4.02
		c-0.97-1.39-1.79-2.57-2.67-3.83c0.59-0.65,1.33-1.47,1.62-1.79c-2.49-4.42-2.56-8.6-0.91-13.09c0.75-2.03,1.46-4.3,1.31-6.39
		c-0.99-13.67,2.43-27.54-1.84-41.06c3.76-6.29,1.05-13.03,2.14-19.96c-22.74,0-44.72,0-66.3,0c-1.49-1.49-2.59-2.59-4.09-4.09
		c0-3.76,0-7.92,0-12.28c-8.02-0.66-16.52,1.86-22.85-6.17c0-1.91,0-4.52,0-6.72c-1.78-1.78-3.82-2.91-4.41-4.56
		c-3.83-10.74-10.34-17.75-22.56-17.85c-0.87-0.01-1.96-2.09-2.55-1.91c-1.34,0.42-2.44,1.64-4.63,3.27
		c10.64,3.64,18.83,8.51,23.72,15.33c3.15,8.8,5.79,16.16,8.32,23.22c6.57,0,11.96,0,17.28,0c1.19,1.19,2.28,2.28,3.36,3.36
		c-0.74,0.81-1.48,1.63-1.42,1.56c0.88,4.24,1.6,7.74,2.4,11.58c22.11,0,44.08,0,66.28,0c0,25.47,0,50.55,0,75.58
		c-4.08,1.95-7.97,3.79-12.73,3.32c-4.88-0.48-9.84-0.11-15.12-0.11c0,5.85,0,10.78,0,15.86c-15.92,8.51-29.32,18.66-27.9,38.4
		c-1.34,1.67-2.29,2.84-3.72,4.63c-2-3.72-4.23-6.73-5.34-10.12c-5.42-16.47-13.98-30.96-27.39-42.01
		c-3.98-3.28-8.07-8.12-13.98-7.02c-2.53-3.71-6.08-1.39-8.93-1.79c-0.09-0.01-0.32,0.96-0.6,1.79c3.11,0,6.02,0,8.93,0.28
		c0.83,2.74,2.74,3.71,5.42,4.84c7.43,3.12,13.48,8.79,17.63,15.36c7.25,11.46,14.94,22.95,18.3,36.37
		c2.82,11.24,6.93,22.61,7.11,33.98c0.41,26.4,3.08,53.09-4.23,79.15c-1.08,3.84-1.59,7.84-2.37,11.76
		c-3.71,3.93-4.83,8.73-4.65,13.96C489.58,635.7,488.81,636.48,488.03,637.25z M362.41,632.59c-0.35-1.76,1.15-4.45-2.33-4.65
		c-0.89-2.29,2.15-5.89-2.33-6.98c-0.5-3.61,1.56-7.77-2.33-10.64c-0.91-12.2-5.2-24.03-4.58-36.36c0.72-14.38-2.02-28.84,2.01-43.2
		c1.45-5.18-0.83-11.63,2.72-16.26c3.98-5.19-0.17-12.08,4.5-16.76c-1.98-5.37,5.38-6.49,5.14-12.02
		c-0.18-3.95,3.88-8.31,6.54-12.14c9.69-13.89,21.17-25.72,36.9-33.1c2.34-1.1,6.74,1.55,7.24-5.6c-0.03,0.76-0.06,1.52-0.1,2.29
		c4.23,0,8.47,0.11,12.69-0.03c4.3-0.15,8.71,0.68,12.85-1.49c-8.51-0.79-16.98-0.84-25.44,1.52c-3.23,0.75-6.42,0.3-9.89,1.3
		c-16.22,4.69-26.33,16.75-36.51,28.62c-6.13,7.15-9.51,16.08-11.8,25.3c-0.85,3.43-2.45,6.17-6.97,4.78
		c3.83-11.76-0.53-22.17-14.91-36.55c-1.83-0.16-3.67-0.32-6.29-0.54c0-6.25,0-12.26,0-18.62c-10.4,0-19.99,0-29.14,0
		c-1.23-1.23-2.05-2.05-2.87-2.87c0-25.09,0-50.17,0-75.66c20.7,0,41.13,0,61.16,0c1.5-1.5,2.6-2.6,4.1-4.1c0-2.99,0-6.38,0-9.49
		c7.72-1.22,15.01-2.37,22.92-3.61c-0.94-9.79,4.43-17.2,10.05-24.56c5.91-7.77,14.7-11.6,23.79-16.43
		c-1.82-1.36-2.74-2.56-3.35-2.42c-6.72,1.51-13.41,2.93-18.83,7.88c-9.52,8.69-15.85,19.23-19.09,30.85
		c-7.19,1.29-13.69,2.46-20.24,3.64c-0.27,4.63-0.54,9.05-0.86,14.49c-2.58-1.58-4.08-3.29-5.62-3.32
		c-12.01-0.22-24.03-0.12-36.05-0.12c-5.74,4.58-11.7,2.04-16.74-0.03c-1.59,1.17-2.29,1.68-1.98,1.45
		c-2.79-0.74-4.35-1.15-6.52-1.72c0,6.87,0.05,12.63-0.02,18.4c-0.04,3.04,0.51,6.4-0.59,9.05c-3.23,7.81-2.22,15.24,0.62,22.73
		c-0.77,0.85-1.53,1.68-2.32,2.55c3.88,2.24,2.19,4.73,0.31,7.23c4.06,2.27-0.47,5.68,0.54,7.07c1.88,2.61,1.27,5.08,1.42,7.62
		c0.17,3.09,0.04,6.2,0.04,9.3c0,3,0,6.01,0,9.41c6.11,0,11.48-0.11,16.85,0.03c5.25,0.14,10.59-0.62,16.16,0.61
		c0,6.31,0,12.02,0,18.09c3.81,0,7.19,0,10.15,0c3.7,3.7,6.99,6.99,10.05,10.05c1.69,7.74,4.36,15.17,4.67,22.7
		c0.35,8.54,2.11,17.37-1.87,25.85c-1.19,2.54-0.45,6.15-0.1,9.21c0.25,2.21,3.95,3.53,1.15,6.83c-0.93,1.1,0.93,4.3,1.04,6.57
		c0.75,15.18-0.94,30.37,1.94,45.62c1.15,6.06,3.37,12.23,2.95,18.64c4.45,0.98-0.54,7.26,4.45,7.94c0.89,2.29-2.16,5.89,2.33,6.98
		C360.43,629.71,358.93,632.4,362.41,632.59c0.35,1.76-1.15,4.46,2.33,4.65c0.35,1.76-1.15,4.46,2.33,4.65
		c-0.37,3.61,0.98,6.07,5.27,6.92c1.15,6.29,2.15,7.42,11.41,13.39c-1.62-6.58-7.69-8.81-12.03-13.34c0.37-3.61-0.98-6.07-4.65-6.98
		c-0.35-1.76,1.15-4.45-2.33-4.65C364.38,635.48,365.89,632.79,362.41,632.59z M372.07,610.68c-1.78,1.58-2.66,2.04-2.61,2.38
		c0.16,1.11,0.65,2.18,1,3.26c0.4-1.4,0.8-2.8-3.8,5.76c1.83-1.69,2.69-2.15,2.64-2.49c-0.16-1.11-0.65-2.18-1.01-3.26
		C367.9,617.71,367.5,619.11,372.07,610.68z M371.71,630.27c4.48-1.09,1.44-4.69,2.33-6.98c4.44-2.72,4.87-7.05,4.41-11.84
		c0.15,0.15,0.3,0.3,0.45,0.45c0.63-0.54,1.27-1.08,1.9-1.62c-0.24-0.25-0.49-0.49-0.73-0.73c-0.54,0.63-1.08,1.26-1.38,2.11
		c-4.44,2.72-4.87,7.05-4.65,11.63c-4.48,1.09-1.44,4.69-2.09,7.19c-0.15-0.15-0.3-0.3-0.45-0.45c-0.63,0.54-1.27,1.08-1.9,1.62
		c0.25,0.24,0.49,0.49,0.73,0.73C370.87,631.75,371.41,631.11,371.71,630.27z M581.08,389.53c0.01,0.46,0.03,0.92,0.05,1.38
		c2.34-0.3,4.69-0.6,7.31-0.94c-0.46-1.78-0.71-2.77-0.97-3.78c-2.3,1.2-4.34,2.27-6.13,4.66c-0.15-0.15-0.3-0.3-0.45-0.45
		c-0.64,0.54-1.27,1.08-1.9,1.62c0.25,0.24,0.49,0.49,0.74,0.73C580.25,392.13,580.79,391.49,581.08,389.53z M488.03,1151.39
		c-2.95,0-5.92-0.19-8.84,0.11c-0.99,0.1-1.86,1.44-2.59,2.6c-0.84-0.13-1.69-0.43-2.52-0.35c-7.81,0.73-15.62,1.5-23.42,2.32
		c-1.41,0.15-2.8,0.59-5.82,1.24c12.13,3.1,21.69-1.22,31.56-3.59c2.95,0,5.92,0.2,8.84-0.1c1-0.1,1.87-1.44,2.76-4.09
		c0.02,0.71,0.05,1.42,0.07,2.13c2.29-0.3,4.57-0.6,6.85-0.9c-0.04-0.52-0.09-1.04-0.13-1.55
		C492.53,1149.31,490.26,1149.42,488.03,1151.39z M482.69,132.38c-0.75,0.07-2.18,0.19-3.79,0.33c-0.09,1.95-0.16,3.42-0.25,5.31
		c2.62,1.99,3.79,6.22,9.03,6.02c-1.73-4.04-3.31-7.71-4.85-12.27c3.34,1.22,6,2.19,8.89,3.25c0.45-1.27,0.8-2.27,1.2-3.39
		c-2.2-1.26-4.26-2.44-6.29-3.6C485.55,129.1,484.46,130.18,482.69,132.38z M430.48,488.36c3.63,0,5.54,0,7.58,0
		c1.52-3.09,3.07-6.23,4.21-8.53c1.89-0.91,3.05-1.47,4.44-2.14c-0.78-1.56-1.24-2.48-2.04-4.08c-2,1.55-4.92,2.7-5.1,4.2
		c-0.38,2.99-2.01,3.09-4.07,4.05c-1.69,0.78-2.6,3.23-3.89,5.83c-1.33,2.43-2.54,4.64-3.78,6.9c1.52,1.32,2.86,2.49,4.28,3.73
		c3.52-1.42,6.45-2.6,9.69-3.9C438.52,493.39,434.19,490.6,430.48,488.36z M453.14,158.51c1.35-1.03,2.47-1.88,3.59-2.73
		c1.13,2.22,2.12,4.52,3.44,6.61c0.74,1.18,2.04,2.01,3.74,3.61c1.14-5.34,2.06-9.33-2.84-12.67c-2.28,0.12-5.13,0.27-7.92,0.42
		c0,1.96,0,3.11-0.7,3.72c-0.77,1.56-1.61,3.27-2.68,5.45c0.31,1,1.2,3.81,2.19,6.92c1.2-2.34,2.17-4.23,3.02-5.89
		C454.24,162.08,453.47,160.13,453.14,158.51z M392.62,876.85c5.94,3.45,12.52,4.61,18.33,3.29c-5.46-4.49-12.02-3.08-18.3-3.27
		c-8.69-6.29-8.69-6.29-23.08,1.54c3.88,1.05,7.67,2.08,11.45,3.11c0,1.44,0,2.88,0,5.68c-6.64-3.01-12.1-5.49-17.51-7.94
		c-1.12,1.12-2.21,2.21-3.35,3.34c5.67,7.52,16.72,5.18,23.97,12.47c-10.73,1.58-17.87-4.38-25.89-7.24
		c-0.47-1.35-0.93-2.7-1.42-4.14c-2.35,1.75-4.48,3.34-8.22,6.12c13.11,4.09,24.38,7.61,34.92,10.9c3.65-3.22,6.45-5.68,9.8-8.63
		c2.04,3.1,3.61,5.48,5.18,7.86c3.5-2.28,7.13-4.63,11.16-7.26c1.57,1.65,3.04,3.2,4.32,4.54c-2.54,4.87-3.69,9.88-9.41,10.77
		c3.96,4.83,3.96,4.83,4.37,10.75c-0.78,0.78-1.55,1.55-2.33,2.33c-4.28-1.21-11.42-5.35-11.79-7.78c1.32-1.44,3.09-3.36,4.71-5.11
		c-1.58-1.58-2.39-2.39-3.63-3.63c-1.54,2.47-3.02,4.83-4.51,7.21c-1.1,0-2.24,0-3.39,0c0.7-1.21,1.41-2.43,2.14-3.68
		c-1.79-1.79-3.68-3.68-4.69-4.69c-3.15,0.55-6.75,2.15-7.68,1.18c-3.34-3.47-7.17-1.51-10.7-2.12c-3.31-3.84-8.21-3.41-13.89-5.6
		c-1.44-1.82-3.88-4.9-5.83-7.37c-2.49,2.25-5.27,4.78-7.55,6.84c0.77,2.45,1.41,4.5,2.46,7.87c5.2,3.06,6.17,12.15,14.79,14.04
		c2.44-1.31,4.79-5.59,9.47-1.86c2.19-2.98,4.37-5.95,6.55-8.92c3.85,0,8.01,0,11.37,0c1.51,1.82,2.54,3.07,3.56,4.31
		c0,3.88,0,7.76,0.87,12.01c-3.85,0-6.83,0-9.74,0c-1.24,1.73-2.27,3.18-4.03,5.63c3.62,1.6,6.42,2.84,9.17,4.05
		c1.7-3.59,2.92-6.15,3.72-10.06c2.01-1.46,4.01-2.93,5.73-4.17c4.24,2.14,8.56,4.32,12.88,6.5c0,2.97,0,5.93,0,8.7
		c1.78,0.45,2.82,0.72,4.02,1.02c1.88,7.17,3.77,14.42,5.71,21.82c-2.6,1.76-4.86,3.29-6.89,4.67c0.75,1.23,1.49,2.44,2.21,3.62
		c-2.65,1.97-5.29,3.32-7.06,5.4c-2.05,2.41-3.34,5.47-5.14,8.57c3.48,3.05,2.34,7.32,2.49,11.34c-3.3,1.36-6.62,2.65-9.87,4.13
		c-0.69,0.32-1.06,1.32-2.19,2.8c3.73,0,6.32,0,9.15,0c1.41,2.37,2.7,4.55,3.74,6.31c2.29,0.76,5.04,0.86,6.22,2.27
		c1.74,2.09,2.38,5.11,3.49,7.76c1.87,0,3.8,0,5.73,0c-0.79,5.03,3.63,6.56,5.99,9.31c2.82,0,5.39,0,7.97,0c0,3.47,0,6.94,0,9.93
		c3.04,3.72,5.83,7.14,8.68,10.63c2.82,0,6.2,0,9.37,0c2.44-6.23-1.99-10.44-3.44-14.47c0.91-2.04,1.49-3.34,1.93-4.31
		c-3.84-3.98-7.31-7.56-10.71-11.08c-6.69,0-13.24,0-19.79,0c-0.71-1.22-1.43-2.44-2.59-4.42c8.66,0,16.97,0,25.29,0
		c-0.34-0.6-0.68-1.2-1.03-1.79c1.94-1.57,3.88-3.15,5.83-4.73c-0.76-0.25-1.62-0.85-2.1-0.63c-10.24,4.66-20.97,1.58-31.46,1.87
		c-1.7,0.05-3.47-2.09-6.88-4.31c14.03,0,25.92,0,37.68,0c1.13-3.8,2.13-7.19,3.09-10.46c-1.24-1.26-2.32-2.36-3.4-3.46
		c-0.56,0.56-1.11,1.59-1.66,1.59c-11.11,0.09-22.22,0.07-29.48,0.07c-4.18-1.37-5.9-1.94-9.66-3.17
		c14.19-2.1,25.66,1.53,36.01-3.03c1.26,0.95,1.99,1.5,2.83,2.13c1.26-3.04,2.31-5.6,3.81-9.21c-3.19,0-5.43,0-7.67,0
		c-2.27-5.02-6.64-1.15-9.81-2.34c-0.65-0.25-1.21-0.75-1.96-1.23c0.19-0.99,0.4-2.04,0.72-3.73c5.41,0.48,10.57,0.94,15.7,1.39
		c0-1.91,0-3.82,0-5.73c0.96-0.77,1.92-1.54,3.47-2.79c-2.07-1.89-3.44-3.13-4.73-4.3c-6.42,0-12.58,0-18.67,0
		c-0.89-1.47-3.09-2.01-2.72-4.2c10.55-1.44,21.2,1.78,30.89-2.58c1.02,1.02,1.57,1.57,2.57,2.57c3.35-4.56,6.64-9.04,10.1-13.75
		c-7.13-2.3-9.99,3.48-13.7,6.21c-3.17,2.33-5.65,4.6-9.83,4.99c-7.27,0.67-13.74-2.41-20.69-4.36c7-0.27,14.01-0.54,21.01-0.81
		c-0.01-0.54-0.02-1.08-0.03-1.63c-5.22,0-10.43,0-14.95,0c-1.66-1.81-2.61-2.84-4.49-4.9c4.03,0,6.89,0,9.55,0
		c0.67-5.03,1.23-9.24,1.8-13.5c-3.84,0-8.25,0-11.77,0c0.5,2.98,0.95,5.63,1.46,8.61c-2.44,0.11-3.94,0.18-5.36,0.25
		c-2.98-2.38-5.88-4.71-8.79-7.03c0-1.55,0-3.1,0-4.65c0.78-0.77,1.55-1.55,2.33-2.33c7.63,0,15.26,0,22.89,0
		c-0.41-0.66-0.82-1.32-1.23-1.98c1.43-0.39,2.86-0.78,4.29-1.17c-0.29-0.56-0.58-1.13-0.87-1.69c-6.77,0-13.55,0-20.52,0
		c0.22-1.87,0.34-2.92,0.55-4.69c9.01,1.19,18.04-1.92,26.01,2.59c1.36-1.05,2.11-1.62,2.81-2.16c1.12,1.12,1.94,1.94,3.29,3.29
		c0,1.33-0.13,3.19,0.02,5.04c0.52,6.34-1.56,11.17-7.48,14.14c-1.31,0.66-2.27,2.08-3.28,3.24c-0.3,0.35-0.2,1.05-0.27,1.55
		c0.48,0.19,0.81,0.41,1.15,0.42c1.16,0.05,2.32,0.02,3.48,0.02c7.52-7.03,10.77-14.47,11.09-24.08c0.16-4.73,1-9.44,1.63-14.93
		c-0.25-0.32-1.14-1.46-2.55-3.27c3.66-2.87,5.27-7.89,11.5-6.51c6.37,9.16,1.47,20.27,3.8,29.53c2.67-0.66,4.74-1.6,6.8-1.59
		c3.57,0.03,5.7-1.39,6.67-4.75c2.88,0,5.75,0,8.46,0c0.4-1.12,0.5-1.84,0.86-2.39c1.5-2.33,3.09-4.61,4.39-7.12
		c0.15,0.15,0.3,0.3,0.45,0.45c0.64-0.54,1.27-1.08,1.9-1.62c-0.25-0.25-0.49-0.49-0.74-0.73c-0.54,0.63-1.08,1.26-1.38,2.11
		c-2.21,0-4.42,0-6.75,0c0-1.85,0-2.9,0-3.73c8.34-2.19,16.38-4.29,25.05-6.56c1.1-1.47,3.89-2.76,4.65-5.83
		c-5.39,1.02-10.07,1.91-15.54,2.95c-4.37,4.09-10.27,4.64-17.64,3.23c7.9-7.4,19.01-3.64,26.64-10.63
		c-7.46-2.09-14.05,4.99-21.57,0.55c4.3-1.59,8.18-3.01,12.14-4.47c-2.4-1.21-4.63-2.34-6.67-3.38c-8.1,2.45-15.37,6.56-24,7.11
		c-8.24,0.52-16.02,5.49-24.6,2.86c-0.74,0.52-1.41,0.99-2.66,1.88c0-2.12,0-3.17,0-4.48c7.52-0.93,14.89-1.62,22.17-2.84
		c4.23-0.7,8.33-2.24,12.48-3.45c0.1-0.03,0.01-0.73-0.09-2.48c0.04,0.53,0.08,1.05,0.12,1.58c3.12-0.27,6.25-0.55,9.66-0.85
		c-0.47-1.82-0.73-2.82-1.16-4.51c-3.12,1.37-5.87,2.58-8.52,5.14c-6.97,0.62-13.93,1.24-20.91,1.85c0-1.59,0-2.34,0-2.99
		c1.42-3.08,6.47,1.33,5.42-3.91c5.3,0,9.06,0,14.05,0c-3.04-1.76-4.99-2.89-6.59-3.81c-2.09,1.07-4.02,2.05-5.93,4.2
		c-3.78,0-7.57,0-11.09,0c-1.74,2.79-3.06,4.9-4.58,7.33c-1.53-0.77-3.02-1.52-4.51-2.27c-1.37,1.37-2.74,2.74-4.52,4.52
		c-6.85,0-14.11,0-21.44,0c-1.46,2.41-2.76,4.56-3.87,6.37c-2.05,0.47-3.84,0.88-5.62,1.3c0.14,0.27,0.28,0.55,0.84,1.64
		c4.01,0,8.44,0,13.16,0c-0.33,1.91-0.51,2.96-0.7,4.04c-7.85-0.99-15.38-1.94-23.67-2.98c1.21-2.2,2.02-3.68,3.29-5.99
		c-4.17,0-7.95,0-11.73,0c-1.09-4.48-4.69-1.44-6.98-2.33c-0.66-1.36-1.32-2.73-2.25-4.65
		C383.86,876.87,388.25,876.87,392.62,876.85z M550.99,114.47c6.03-1.27,12.11-2.37,18.09-3.85c5.49-1.36,10.89-3.12,16.32-4.7
		c-12.2-0.69-23.36,3.13-34.53,9.31c-0.01-0.35-0.02-0.69-0.03-1.04c-4.54,0-9.09,0-13.63,0c0.74,0.9,1.47,1.81,2.21,2.71
		c-1.77-0.01-3.53-0.02-5.3-0.03c0.39,0.58,0.78,1.17,1.16,1.75C540.48,117.5,545.68,116.37,550.99,114.47z M476.4,939.68
		c3.67-3.7,7.33-7.4,10.94-11.04c-3.33-0.94-6.67-1.89-10.18-2.88c-1.08,1.61-2.08,3.12-3.08,4.62c-3.04,1.07-5.48,2.51-4.26,6.57
		c2.01-0.77,3.79-1.44,6.59-2.52c0,2.37,0,3.81,0.06,7.06c-0.03-0.67-0.07-1.34-0.1-2.01c-1.52,0.3-3.03,0.6-4.55,0.89
		c0.07,0.5,0.14,1,0.2,1.5C473.5,941.75,474.98,941.62,476.4,939.68z M422.89,267.29c-5.43,10.96-9.92,20.01-14.57,29.38
		c8.08,0.56,8.16,0.47,9.93-4.55c1.2-3.36,2.59-6.66,4.63-11.87c0-2.07,0-6.33,0.29-10.94c2.16-2.69,2.16-2.69,0-6.55
		C423.18,265.41,423.18,267.54,422.89,267.29z M462.23,974.82c0.15-0.15,0.3-0.3,0.45-0.45c-0.54-0.64-1.08-1.27-1.62-1.9
		c-0.25,0.24-0.49,0.49-0.74,0.73c0.64,0.54,1.27,1.08,2.36,1.55c0.96,2.82,1.99,5.87,3.03,8.92c3.34-0.8,6.67-1.59,10.06-2.4
		c0.59,3.12,0.99,5.23,1.69,8.92c2.58-2.65,5.23-4.14,5.68-6.13c0.64-2.8,2.5-2.18,4-2.88c0.27-0.12,0.18-1.02,0.27-1.66
		c-1.99-0.22-3.82-0.42-5.09-0.55c-1.59-2.53-2.95-4.68-4.33-6.87C473.12,976.69,467.46,973.45,462.23,974.82z M468.9,530.17
		c-0.67,0.03-1.34,0.07-2.01,0.1c0.3,1.52,0.6,3.03,0.89,4.55c0.5-0.07,1-0.14,1.5-0.2c-0.13-1.48-0.25-2.96-2.11-3.44
		c-0.6-7.61-10.06-29.76-15.57-36.03c-1.71-1.95-3.01-5.83-7.17-4.01C450.1,505.05,453.87,519.92,468.9,530.17z M578.76,986.21
		c-2.94,0.77-5.88,1.54-9.49,2.49c0.6-8.39,9.86-7.32,11.64-13.55c-4.41-2.47-7.39,1.82-11.03,2.4c-0.3,1.17-0.3,2.41-0.88,3.23
		c-6.33,8.84-6.84,11.5-4.25,21.76c0.36,1.45,0.05,3.07,0.3,4.82c-0.15-0.15-0.3-0.3-0.45-0.45c-0.64,0.54-1.27,1.08-1.9,1.62
		c0.25,0.24,0.49,0.49,0.74,0.73c0.54-0.63,1.08-1.27,1.38-2.11c9.94-2.82,15.03-7.31,15.45-13.57c-4.14,2.11-8.31,4.24-12.48,6.37
		c0.25-3.05,1.34-6.02,3.14-6.52c4.09-1.16,6.08-3.9,7.61-7.42c0.15,0.15,0.3,0.3,0.45,0.45c0.64-0.54,1.27-1.08,1.9-1.62
		c-0.25-0.25-0.49-0.49-0.74-0.73C579.6,984.73,579.06,985.37,578.76,986.21z M450.81,479.05c0.38,0.38,0.75,0.76,1.14,1.14
		c0.71-1.86,1.42-3.72,2.13-5.58c1.83-9,2.84-19.33-9.33-23.2c-5.92,0-11.25,0-16.3,0c-3.54,3.54-6.82,6.82-10.2,10.2
		c0,3.75-0.04,7.6,0.06,11.44c0.01,0.37,0.91,0.71,1.41,1.07c1.38-2.97,2.73-5.89,3.37-7.27c3.52-2.66,5.84-4.41,8.32-6.28
		c7.92-1.43,14.31,1.76,19.41,8.2c0,3.35,0,6.82,0.25,10.51c-0.15-0.15-0.3-0.3-0.45-0.45c-0.64,0.54-1.27,1.08-1.9,1.62
		c0.25,0.24,0.49,0.49,0.74,0.73C449.98,480.53,450.52,479.9,450.81,479.05z M582.21,130.21c-8.67-0.86-15.65,3.69-23.27,2.25
		c-2.35,4.4-7.34,0.57-10.22,3.25c-4.51,4.19-10.18,3.76-14.69,3.68c-4.75,3.11-9.82,4.46-11.38,10.63
		c1.21,0.89,2.71,1.99,4.38,3.21c18.27-5.98,37.04-11.81,53.81-23.35c0.15,0.15,0.3,0.3,0.45,0.45c0.64-0.54,1.27-1.08,1.9-1.62
		c-0.25-0.24-0.49-0.49-0.74-0.73C581.92,128.61,581.38,129.24,582.21,130.21z M248.2,121.03c0.15-0.15,0.3-0.3,0.45-0.45
		c-0.54-0.63-1.08-1.27-1.62-1.9c-0.24,0.24-0.49,0.49-0.73,0.73c0.63,0.54,1.27,1.08,0.54,0.3c4.18,3.46,6.65,6.2,9.72,7.84
		c2.79,1.49,6.85,0.97,9.21,2.8c3.04,2.36,6.5,3.31,9.56,5.02c12,6.71,24.95,10.91,37.5,16.16c5.35,2.24,10.44,5.19,17.63,3.53
		c0.67-2.49,1.38-5.15,2.12-7.9c-15.38-2.02-28.58-8.19-42.42-12.03C275.88,131.16,262.86,123.95,248.2,121.03z M613.83,93.71
		c9.35-1.83,19.05-2.65,27.98-5.71c18.8-6.45,37.9-12.35,57.49-23.05c-3.85,0-5.9-0.57-7.4,0.09c-9.82,4.34-20.35,5.37-30.78,6.86
		c-10.81,1.55-21.24,4.93-30.45,10.33c-5.6,3.28-11.48,6.06-16.97,12.5c-0.04-0.71-0.08-1.42-0.12-2.12
		c-2.27,0.3-4.53,0.59-6.8,0.89c0.05,0.52,0.09,1.04,0.14,1.55C609.17,94.95,611.43,94.84,613.83,93.71z M242.41,97.88
		c-1.58-1.78-2.04-2.66-2.38-2.61c-1.11,0.16-2.18,0.65-3.26,1.01c1.4,0.4,2.8,0.8,1.74-1.21c-9.64-5.39-18.61-9.19-25.97-15.66
		c-2.2-1.93-6.13-2.79-9.21-2.68c-12.83,0.46-24.84-4.96-37.58-4.84c-1.04,0.01-2.31-0.25-3.09-0.87c-3.88-3.08-7.86-0.65-11.74-1
		c6.87,3.22,13.49,7.18,20.61,8.61c10.03,2.01,19.12,6.58,28.84,8.96C212.4,90.53,223.96,96.03,242.41,97.88z M619.15,78.91
		c-6.65,0-12.46,0-17.1,0c-10.33,4.96-19.54,9.86-29.14,13.85c-9.91,4.11-20.19,7.32-32.01,11.53c-7.22-1.47-15.69,4.18-24.93,2.7
		c-1.84-0.29-3.94,1.53-5.99,2.13c-1.7,0.5-3.51,0.62-5.27,0.9c16.77,2.7,32.79-2.24,49.15-3.19c21.66-8.5,44.5-14.14,64.2-28.13
		c0.15,0.15,0.3,0.3,0.46,0.45c0.63-0.54,1.26-1.08,1.9-1.62c-0.25-0.24-0.49-0.49-0.74-0.73
		C619.15,77.43,618.61,78.06,619.15,78.91z M639.22,97.33c-6.62,0.87-13.68,0.63-19.67,3.05c-3.35,1.35-6.82,0.5-9.55,2.11
		c-11.34,6.65-24.13,9.14-36.45,12.84c-9.39,2.82-19.18,4.31-29,6.43c-4.56,3.09-9.44,6.41-14.33,9.72
		c12.71-1.55,25.01-4.2,37.13-7.55c12.45-3.43,24.61-7.91,37.08-11.25c12.22-3.27,22.52-11.08,34.76-16.98
		c0.03,0.67,0.07,1.34,0.1,2.01c1.52-0.3,3.03-0.59,4.55-0.89c-0.07-0.5-0.14-1-0.2-1.5C642.15,95.46,640.67,95.59,639.22,97.33z
		 M485.71,118.46c0,1.16,0,2.32,0,3.76c1.26,0.43,2.63,0.82,3.94,1.37c1.49,0.63,2.93,1.4,4.95,2.38c-0.74-4.97-1.54-5.57-8.64-7.51
		c-0.96-1.65-1.85-3.19-2.47-4.25c1.2-3.55,2.23-6.6,3.24-9.61c3.62-1.03,6.92,5.76,10.96,0.21c-1.87-2.72-3.71-5.38-6.44-9.34
		c16.37,0.77,29.67-4.83,45.55-11.63c-17.06,0-31.27,0-46.44,0c-9.5,21.21-25.04,38.07-44.5,51.74c1.04,6.04-0.73,12.09,1.59,19.87
		c2.18-3.09,3.28-4.65,4.77-6.77c1.97,0,4.57,0,6.65,0c4.7-3.78,7.27-8.59,11.67-12c4.25-3.29,6.94-8.6,10.41-13.15
		c0.16-1.56,0.35-3.35,0.52-5.07C483.39,118.46,484.55,118.46,485.71,118.46z M454.29,654.71c-0.41,0.39-0.82,0.77-1.23,1.16
		c0.1,1.37,0.2,2.74,0.34,4.61c1.63-0.11,2.88-0.2,4.44-0.3c-1.41-2.18-2.48-3.83-4.7-1.64c0-4.62,0-6.56,0-9.76
		c-1.18-0.8-3.11-2.1-5.04-3.4c4.88-18.88,1.8-37.62,2.79-55.75c-1.86-1.86-3.23-3.24-4.66-4.66c1.02-15.85-5.9-31.57-0.83-47.44
		c-7.47,0-14.73,0-22.62,0c-1.18,9.4-2.11,18.58-3.53,27.68c-1.39,8.99-3.31,17.89-5.34,26.79c-2.05,9.02,0.86,18.82-1.61,28.92
		c0.09,0.19,0.76,1.47,1.26,2.81c0.45,1.21,0.7,2.5,1.04,3.75c0.35-0.11,0.69-0.21,1.04-0.32c0.25-4.38,0.5-8.77,0.75-13.16
		c0.53,0,1.06,0,1.59,0.01c0.18,6.15,0.36,12.3,0.54,18.45c0.44-0.01,0.88-0.03,1.32-0.04c0.49-1.34,0.97-2.69,1.64-4.54
		c1.23,0.24,2.54,0.49,4.51,0.86c-1.27,2.57-2.22,4.48-3.41,6.88c3.6,3.04,3.78,7,1.43,10.87c-1.58,2.62-1.58,4.63,0.07,7.23
		c1.11,1.74,1.2,4.13,1.73,6.15c3.52,0.99,6.93,2.46,10.47,2.84c4.04,0.43,8.18-0.1,12.81-0.23c-1.12-4.32-1.98-7.62-2.88-11.09
		c1.73-0.1,2.49-0.15,3.45-0.21C450.38,652.71,451.13,654.31,454.29,654.71z M444.71,249.31c-1.2-6.54-1.05-12.97-3.64-18.01
		c-3.6-7.04-4.63-14.06-4.18-21.53c0.93-15.56-0.74-31.06,1.78-46.79c2.36-14.74,1.11-30.19,0.23-45.25
		c-0.39-6.65-4.18-13-5.28-19.83c-0.15-0.93-1.55-1.66-2.37-2.48c-1.49,0.87-2.98,1.74-4.31,2.52c-1.29-1.17-2.12-1.92-3.46-3.14
		c-2.8,11.6-8.48,22.14-7.63,34.33c0.35,5.01,0.3,10.09-0.05,15.1c-0.17,2.44-1.43,4.8-1.75,5.82c0.78,4.06,1.86,6.9,1.76,9.7
		c-0.49,13.72,4.16,27.12,2.46,40.9c-0.13,1.05,0.22,2.2,0.51,3.26c2.52,9.13,1.78,11.08-0.35,20.44
		c-2.1,9.27-7.31,18.08-4.49,28.28c-9.65,8.61-19.02,16.97-27.79,24.81c0,2.44,0,4.23,0,5.08c3.51-0.56,6.68-1.07,10.22-1.64
		c9.79-7.36,13.42-20.99,24.62-28.04c3.13,2.99,5.83,5.55,8.8,8.39c2.36-2.12,4.19-3.76,4.99-4.48c6.34,3.88,8.73,9.91,11.49,15.89
		c2.86,6.21,6.76,11.94,10.31,18.07c1.31-2.64,2.56-5.14,2.96-5.94c-2.39-11.43-14.43-15.17-15.94-27.05
		c6.01,1.01,6.17,6.65,9.66,8.9c3.5,2.25,6.3,5.72,9.11,8.92c2.6,2.97,3.89,7.4,8.95,7.37c-0.45-7.2-2.21-9.11-6.96-13.37
		c-5.08-4.56-12.55-6.68-14.97-14.05c-0.17-0.52-0.25-1.07-0.43-1.87c2.03,0,3.85,0,5.64,0c7.18,7.69,14.3,15.27,25.82,16.14
		c2.19-5.12-1.83-8.03-2.81-11.58c-11-0.12-19.41-6.71-27.62-11.06C447.8,248.03,446.48,248.58,444.71,249.31z M303.93,432.1
		c2.38,1.04,4.31,2.47,6.34,2.63c4.62,0.37,9.29,0.12,13.95,0.12c4.65,0,9.31,0.16,13.95-0.05c4.19-0.19,8.36-1.1,12.54-1.1
		c4.48,0.01,8.97,1.13,13.45,1.01c3.19-0.09,6.32-1.99,9.51-2.09c9.29-0.3,18.66-0.73,27.89,0.07c9.26,0.8,17.89-3.05,26.96-2.45
		c8.22,0.54,16.42,2.09,24.63,2.17c29.85,0.27,59.7,0.1,89.55,0.1c1.83,0,3.66,0,4.66,0c1.64-1.64,2.46-2.46,3.74-3.74
		c-3.74-6.67,6.51-13.6-0.08-20.84c3.75-2.84,2.44-7.15,1.92-10.59c-0.51-3.39-3.45-5.85-0.43-10.12c1.61-2.28-0.3-7.06-0.66-10.71
		c-0.05-0.55-0.32-1.07-0.26-0.87c0.85-1.93,1.42-3.24,1.97-4.51c-1.44-1.35-2.56-2.41-4.2-3.94c-19.86,0-40.29,0-60.44,0
		c-5.27-7.67-5.27-7.67-6.12-16.29c-5.89,0-11.9,0-17.74,0c-0.33-8.22-6.04-14.34-5.12-22.05c0.06-0.48-1.12-1.02-1.55-1.65
		c-5.62-8.36-5.58-8.42-16.2-13.78c-2.1-1.06-4.49-1.56-7.97-2.73c0.94,5.95-0.2,9.59-5.63,10.31c-1.41-3.13-2.74-6.07-4.19-9.25
		c-2.46,0-5.06,0-6.83,0c-14.87,8.19-22.41,20.68-24.98,32.92c-2.92,4.6-4.38,6.9-5.15,8.12c-6.7,1.96-13.49-2.39-17.95,4.18
		c5.8,5.05-0.66,8.53-1.12,12.82c-21.24,0-42.16,0-63.08,0.03c-0.27,0-0.55,0.51-0.7,0.67c0.68,4.03,3.13,9.03,1.57,11.6
		c-2.33,3.84-1.97,7.36-1.76,10.91c0.35,5.87-2.29,12.15,1.99,17.57C301.55,417.29,305.73,424.72,303.93,432.1z M311.06,84.01
		c18.29,7.6,34.74,11.75,52.89,14.64c-2.65,3.24-4.34,5.31-5.65,6.91c3.89,7.65,8.75,0.66,13.97,1.48
		c-1.16,2.96-2.03,5.18-2.93,7.47c3.33,3.09,6.68,6.21,9.84,9.15c0,2.68,0,4.47,0,6.05c2.45,0.4,4.4,0.72,6.71,1.09
		c-1.16,1.46-1.77,2.23-2.55,3.21c3.29,3.12,6.36,6.03,8.84,8.39c0,2.51,0,4.3,0,6.09c-3.08,0.17-5.68,0.32-9.21,0.52
		c-0.81,2.65-1.63,5.3-2.5,8.11c3,0.72,5.28,0.89,7.17,1.83c2.13,1.05,3.93,2.8,6.73,4.88c1.36-5.86-0.53-10.95,2.11-16.29
		c3.04,3.45,5.45,6.17,8,9.05c5.52-6.7,5.54-7,2.14-15.67c0.95-1.5,1.89-3,3.27-5.18c-2.82-1.48-5.08-2.56-7.24-3.83
		c-5.38-3.15-10.79-6.01-15.46-10.49c-7.91-7.6-12.42-17.21-17.82-26.35c-2.4-4.07-5.04-8-6.98-11.05
		C345.28,84.01,329.54,84.01,311.06,84.01z M433.3,465.13c-4.73,4.98-10.22,9.31-10.81,17.47c-0.22,3.1-3.93,6.04-6.27,8.88
		c-3.1,3.79-6.29,7.51-9.64,11.08c-5.88,6.26-6.26,15.26-11.36,22.06c-2.26,3.02-1.82,8.06-2.8,13.23
		c4.67-0.87,8.07-1.51,11.42-2.13c0.65,0.42,1.34,0.86,2.22,1.44c0.6-2.06,0.97-3.32,0.95-3.25c1.65,0.67,3.48,1.42,5.65,2.3
		c-1.89,2.37-2.77,3.47-3.64,4.58c1.89,2.66,3.76,5.28,6.89,9.68c0-6.26-1.34-10.85,0.32-13.72c2.36-4.09,1.49-7.99,2.05-11.97
		c0.56-3.96,1.54-7.86,2.21-11.81c0.04-0.26-0.91-0.7-1.39-1.05c-7.1,6.72-12.44,15.22-22.33,20.89c0.76-2.31,0.83-3.86,1.63-4.73
		c3.13-3.42,6.47-6.64,9.78-9.89c7.98-7.84,12.91-17.68,16.86-27.81c4.69-12.02,7.75-16.49,18.65-21.92
		c-1.1-1.1-2.19-2.19-3.32-3.32C438.12,465.13,435.81,465.13,433.3,465.13z M221.02,79.69c7.04,1.9,10.86,6.93,16.89,6.19
		c3.37,5.23,9.54,4.98,14.39,7.29c5.16,2.46,10.36,5.13,15.85,6.5c7.7,1.94,15.14,4.74,22.83,6.55c7.77,1.83,15.2,4.92,23.38,5.42
		c5.33,0.32,10.58,2.29,15.82,3.69c4.82,1.29,14.44,1,19.78-0.75c-6.23-1.01-12.74-2.52-19.32-2.99c-5.63-0.4-10.74-1.69-15.64-4.41
		c-2.17-1.2-4.59-2.26-7.01-2.63c-9.43-1.42-18.03-5.54-25.97-10.08c-5.92-3.39-12.65-5.54-17.93-10.2
		c-1.78-1.57-4.43-2.61-6.83-2.97C246.11,79.65,234.95,77.6,221.02,79.69z M407.64,678.77c6.76,1.39,13.76-1.56,20.1,2.56
		c0.86,0.56,2.76-0.46,4.18-0.77c2.12-0.46,4.21-1.26,6.34-1.38c10.6-0.62,19.77-4.49,27.58-11.63c0.43-0.4,0.62-1.05,0.94-1.62
		c-1.38-1.26-2.71-2.47-3.96-3.61c-7.68,6.25-17.93,6.7-22.82,14.8c-9.34-3.73-17.05-11.06-27.6-4.71
		c-1.31-1.71-2.71-3.52-4.06-5.27c-3.11,0-5.7,0-8.21,0c-0.47-2.5-0.86-4.61-1.24-6.63c-2.01,0-3.55,0-5.4,0
		c-1.98,2.38-4.08,4.91-6.02,7.24C393.6,673.93,401.76,674.56,407.64,678.77z M274.56,83.77c25.12,13.38,49.55,22.07,78.24,25.46
		c-2.96-3.49-4.14-5.98-6.07-6.92c-4.15-2.02-8.57-3.91-13.08-4.67c-13-2.2-23.91-9.48-36.65-13.87
		C290.84,83.77,283.95,83.77,274.56,83.77z M324.56,130.28c-4.7-0.67-9.48,1.04-13.25-2.51c-12.04,0.74-22.87-4.77-33.98-7.74
		c-17.87-4.77-34.81-12.92-52.4-18.9c-4.04-1.38-8.35-5.42-13.88-2.69c14.44,8.95,30.7,11.73,44.96,19.35
		c4.37,2.34,9.25,3.86,14.04,5.26c6.24,1.83,12.89,2.48,18.85,4.91c6.01,2.45,13.32,0.98,18.29,6.25
		c6.84-0.26,13.18,5.58,20.96,1.46C326.84,133.68,325.64,131.89,324.56,130.28z M457.79,585.01c0,13.09,0,26.2,0,39.31
		c0,4.24-0.39,8.53,0.11,12.71c0.47,3.89,1.89,7.66,2.86,11.35c4.51-1.91,8.94-3.79,13.33-5.65c-0.12-0.85-0.22-1.58-0.37-2.64
		c-3.4-1.66-8.77,1.56-11.06-4.81c0-6.14,0-13.37,0-20.51c1.57-0.56,2.91-1.03,4.15-1.47c0-2.05,0-3.87,0-5.59
		c-1.62-0.57-2.96-1.04-4.06-1.43c0-4.45,0-8.59,0-11.92c3.35-2.74,6.12-5.02,8.94-7.33c-2.86-7.84-2.86-7.86-1-14.92
		c-0.78,0-1.92-0.32-2.24,0.05C464.83,576.38,461.33,580.71,457.79,585.01z M317.91,1072.92c-9.13-1.32-18.21-3.34-26.63-8.16
		c-0.78,7.57-0.55,7.44,2.1,11.9c2.74,4.59,4.96,9.5,7.4,14.25c9.21-0.97,17.23,6.58,27.51,3.96c-2.41-4.75-4.51-7.73-9.82-8.87
		c-6.56-1.41-13.3-3.12-19.15-6.81c-1.08-0.68-1.53-2.36-2.54-4.03c7.65,1.58,13.87,4.62,21.13,4.01
		C317.91,1076.86,317.91,1075.05,317.91,1072.92z M396.71,555.55c5.28,9.11,10.24,16.98,13.45,27.46c0.81-5.36,1.86-8.78,1.74-13.01
		c-0.12-4.23,2.28-8.93,1.12-13.69c-1.2-0.31-2.24-0.58-4.08-1.05c0-2.65,0-5.51,0-8.37c-0.59,0.33-1.19,0.65-1.78,0.98
		c-1.39-2.29-2.77-4.59-4.16-6.91c-4.83,1.38-8.62,2.45-12.21,3.48c-1.2,3.79-2.24,7.1-3.52,11.11
		C391.08,555.55,393.67,555.55,396.71,555.55z M451.13,580.9c0.56,0.21,1.13,0.42,1.69,0.63c2.54-3.64,4.61-7.79,7.75-10.81
		c5.8-5.6,8.55-14.6,17.96-15.61c-2.95-4.12-5.49-7.67-8.37-11.68c-3.64,1.41-6.94,2.69-9,3.48c-2.68,5.32-4.75,9.44-6.43,12.77
		c-1.87,1.1-1.68-2.69-3.6-0.72C451.13,566.41,451.13,573.65,451.13,580.9z M574.95,81.64c-6.08,0-11.01,0-15.41,0
		c-17.87,8.87-37.67,11.65-55.56,19.36c0.55,1.66,0.79,2.34,1.29,3.83c1.93-0.93,3.79-2.65,5.53-2.52
		c8.75,0.66,16.61-2.43,24.84-4.59C549.12,94.17,562.09,89.82,574.95,81.64z M441.39,526.95c4.28-7.93,1.74-16.19,2.54-23.77
		c-3.55,0.58-6.28,1.19-9.04,1.42c-3.34,0.29-7.09-0.94-9.42,3.61c0,4.33,0,9.24,0,14.09c1.83,2.77,3.62,5.48,5.34,8.1
		C434.35,529.25,437.42,528.24,441.39,526.95z M276.38,398.77c-7.51-3.27-16.63-3.21-22.01-10.33c-5.58,3.58-10.45,6.7-14.32,9.19
		c3.79,3.79,7.46,7.46,11.41,11.41c7.62-2.53,16.05-5.33,24.72-8.21C276.19,400.61,276.27,399.88,276.38,398.77z M382.82,271.81
		c13.06-4.86,20.22-13.97,28.48-21.94c-1.47-1.39-2.54-2.4-3.62-3.42c-7.58,8.34-17.88,10.97-27.98,13.8
		c-3.34,0.94-5.16,2.33-5.72,5.71c-0.32,1.91-1.12,3.74-1.78,5.85C376.3,271.81,380.11,271.81,382.82,271.81z M600.97,393.08
		c-8.38-1.41-13.97,6.02-21.67,5.23c-0.49-0.05-1.14,0.98-1.62,1.58c-0.38,0.47-0.61,1.06-0.9,1.59c5.1,3.5,14.63,5.48,23.66,5.14
		c3.11-2.18,5.71-3.99,8.28-5.78C606.27,398.38,603.8,395.92,600.97,393.08z M428.12,269.89c-1.93,4.59,0.65,9.52-1.88,14.29
		c-2.08,3.91-1.87,9.04-2.81,14.42c1.94,2.39,1.75,8,7.33,8.44c2.13-3.2,4.11-6.2,6.38-9.63c-3.23-8.59-6.36-17.58-4.72-27.52
		C430.43,269.89,429.38,269.89,428.12,269.89z M319.28,123.25c1.47-1.54,2.5-2.61,3.59-3.75c-3.56-1.15-6.9-2.76-10.41-3.26
		c-7.77-1.11-15.63-1.59-23.43-2.49c-1.36-0.16-2.62-1.54-3.95-1.57c-6.85-0.15-13.22-5.53-21.2-1.62
		C282.9,115.08,300.57,122.18,319.28,123.25z M404.62,620.53c0.53,0.04,1.05,0.08,1.58,0.11c0-11.89,0-23.79,0-35.49
		c-1.41-2.89-2.64-5.91-4.33-8.65c-0.67-1.09-2.36-1.54-3.99-2.52c0,11.02,0,20.86,0,30.71c0.45,0.02,0.9,0.04,1.35,0.06
		c0.28-6.23,0.57-12.45,0.85-18.68c0.34,0.02,0.68,0.04,1.03,0.06C402.27,597.6,403.45,609.06,404.62,620.53z M419.28,258.07
		c-1.9,3.48-3.59,7.1-5.76,10.4c-2.04,3.1-4.32,6.14-6.99,8.69c-2.86,2.74-6.3,4.89-8.82,6.79c0,3.45,0,6.05,0,10.04
		c5.09-4.32,11.1-7.07,13-11.56C414,274.66,420.51,268.01,419.28,258.07z M381.25,171.96c-2.32,5.45-4.5,10.57-6.66,15.65
		c2.73,4.69,2.73,4.69,7.22,7.64c6.26-4.03,5.02-11.77,9.07-16.77C387.62,176.26,384.91,174.43,381.25,171.96z M345.61,177.16
		c9.65-2.43,16.46-5.2,18.05-11.19c-2.11-3.65-3.62-6.28-5.02-8.69c-4.04,2.64-7.03,4.6-9.94,6.5
		C347.77,167.82,346.83,171.88,345.61,177.16z M577.32,970.04c-1.26-4.87-1.17-9.54-3.43-12.24c-4.8-5.71-6.69-12.87-10.88-18.78
		c-2.05-2.9-3.9-5.94-5.9-9.01c-1.74,1.7-2.85,2.77-3.74,3.64c5.97,8.9,11.89,17.73,18.94,28.24c0,1.28,0,4.61,0,7.91
		C573.59,969.86,574.34,969.89,577.32,970.04z M507.73,443.99c-3.85,6.53-8.89-4.31-13.01,2.41c3.22,1.17,6.23,2.26,9.67,3.51
		c-0.19,1.83-0.4,3.89-0.73,7.21c-3.69-2.66-6.28-4.54-8.65-6.25c-2.64,1.49-4.75,2.68-6.87,3.87c1.12,1.12,2.21,2.21,2.96,2.96
		c1.99-0.73,3.78-1.38,5.85-2.14c0.36,4.66,0.64,8.23,0.98,12.49c1.79-3.91,3.18-6.96,4.33-9.48c2.67,0.97,4.23,1.54,7.62,2.78
		c-1.37-3.56-2.05-5.33-2.67-6.94c1.51-1.94,3.08-3.94,4.67-5.99C510.38,446.81,509.34,445.71,507.73,443.99z M507.24,159.63
		c2.96-0.85,5.63-1.62,8.51-2.44c0-1.74,0-3.54,0-6.41c-5.54-2.32-11.34-4.74-17.11-7.16c-1.26,2.49-2.23,4.39-3.45,6.8
		C499.16,153.46,503.49,156.77,507.24,159.63z M451.22,521.3c0,11.37,0,22.76,0,35.8c2.54-5.01,4.35-8.58,6.03-11.89
		c-1.58-1.13-3.13-2.24-5.87-4.21c5.47-2.02,9.43-3.49,13.05-4.82C460.14,531.35,455.76,526.42,451.22,521.3z M386.6,1155.4
		c5.34,4.83,9.54,5.52,14.19,5.38c9.3-0.27,18.61-0.25,27.91-0.01c4.71,0.12,8.94-0.4,12.78-4.45c-3.96,0-8-1.2-10.58,0.24
		c-5.95,3.31-11.99,0.97-17.89,1.81C405.2,1153.31,396.73,1157.48,386.6,1155.4z M475.4,194.96c5.21-7.46,4.19-14.23-2.2-20.38
		c-1.41,0.82-2.88,1.68-4.14,2.42c-1.51-1.08-2.5-1.79-4.46-3.2C465.32,183.36,468.32,190.24,475.4,194.96z M450.28,179.15
		c1.98,8.02,3.15,15.2,8.94,21.21c1.89-3.17,3.61-6.07,4.96-8.34c-1.74-4.73-3.2-8.72-4.72-12.87
		C456.78,179.15,454.21,179.15,450.28,179.15z M364,186.65c6.99-3.93,8.85-10.51,13.27-15.77c-3.72-1.14-6.63-2.03-10.29-3.15
		c-2.33,3.54-4.89,7.43-7.21,10.96C361.29,181.57,362.45,183.75,364,186.65z M401.6,181.76c-1.49-0.97-3.3-2.16-5.28-3.46
		c-4.41,15.41-4.41,15.41-1.93,24.67c1.66-1.3,3.99-2.18,4.31-3.54C400.07,193.78,403.33,188.4,401.6,181.76z M439.07,267.17
		c-3.24,11.73,0.62,21.22,5.47,30.88c1.66-1.66,2.74-2.74,4.47-4.47C445.78,285.01,442.42,276.09,439.07,267.17z M511.1,170.31
		c-7.43-5.21-12.98-9.1-18.59-13.04c-1.87,1.79-3.15,3.02-4.68,4.48c5.57,3.14,7.02,10.27,12.46,11.85
		C503.82,172.52,506.46,171.72,511.1,170.31z M510.19,118.87c-1.93,2.92-3.75,5.68-5.68,8.58c6.54,0,12.21,0,17.8,0
		c1.29-1.63,2.39-3.04,2.94-3.74c-2.26-2.98-4.02-5.3-4.86-6.41C516.14,117.95,512.97,118.45,510.19,118.87z M337.27,156.96
		c1.05,1.22,2.04,2.38,3.6,4.19c4.82-2.09,9.69-4.2,13.89-6.03c-0.88-3.01-1.67-5.7-2.75-9.39c-3.61,1.27-7.17,2.51-8.78,3.08
		C340.53,152.51,339.04,154.54,337.27,156.96z M570.13,1076.46c-2.56-2.56-4.45-4.45-6.52-6.52c-2.23,2.49-4.46,4.99-6.64,7.44
		c-3.86,0-7.19,0-10.88,0c0.21,3.26,0.39,6.06,0.56,8.73C554.79,1082.76,562.29,1079.67,570.13,1076.46z M542.09,1099.09
		c7.24-0.77,13.84-3.14,20.02-6.69c0.79-2.16,1.46-4.01,2.13-5.83c-7.68,1.92-14.63,3.67-22.92,5.75c0.06-0.06-1.03,1-1.87,1.82
		C540.36,1095.81,541.19,1097.38,542.09,1099.09z M392.26,602.12c0-6.93,0-13.62,0-20.51c-2.49,1.28-4.58,2.35-6.17,3.17
		c0,6.02,0,11.66,0,17.34C388.33,602.12,390.14,602.12,392.26,602.12z M358.22,136.66c4.03,0,5.85,0,8.09,0
		c1.5-1.5,3.41-3.42,5.03-5.04c0-3.69,0-7.06,0-10.62c-3.75,0-7.12,0-10.36,0c-1.16,1.23-2.16,2.29-1.36,1.44
		c0.63,2.36,1.18,4.38,1.52,5.66c3.38-1.19,5.53-1.94,7.69-2.7c0.43,0.64,0.86,1.28,1.29,1.92
		C366.63,130.05,363.15,132.78,358.22,136.66z M414.12,854.34c11.17,3.74,20.54,6.89,30.06,0.1c-0.56-1.31-0.97-2.28-1.06-2.5
		c-5.24,0.6-10.11,0.61-14.66,1.82C424.1,854.92,420.08,848.19,414.12,854.34z M478.7,170.87c4.52,10.67,4.95,11.05,13.88,11.97
		c1.02-7.21-5.48-10.23-7.63-15.17C482.46,168.93,480.58,169.9,478.7,170.87z M347.07,120.08c-7.17,1.41-12.41-0.27-18.51,1.91
		c2.78,3.29,4.87,5.78,6.51,7.72c3.2,0,5.75,0,9.23,0C345.08,127.02,345.83,124.4,347.07,120.08z M380.77,137.23
		c-6.05-0.6-10.72,0.21-14.05,4.54c2.89,5.11,4.45,0.69,6.5,0.04c0.87-0.28,2.04,0.39,2.91,0.59c-1.45,2.87-2.79,5.5-4.97,9.83
		c4.4-1.49,7.03-2.39,9.61-3.27C380.77,144.68,380.77,141.32,380.77,137.23z M416.12,702c8.45,0,16.71,0,25.18,0
		c0-1.4,0-2.45,0-3.88c-8.44,0-16.71,0-25.18,0C416.12,699.53,416.12,700.57,416.12,702z M334.49,140.36
		c5.49,7.12,10.78,2.85,15.97,0.46c0-1.88,0-3.71,0-5.8c-3.67,0-7.05,0-9.46,0C338.45,137.12,336.42,138.79,334.49,140.36z
		 M502.07,138.87c5.03,1.08,10.22,2.2,15.05,3.24c1.64-2.1,2.69-3.21,3.41-4.5c0.28-0.49-0.2-1.4-0.34-2.1
		c-4.98-0.88-9.96-1.76-15-2.66C504.33,134.51,503.32,136.45,502.07,138.87z M406.99,185.88c0,3.96,0,8.81,0,13.88
		c1.99,0.98,3.76,1.86,5.62,2.78c3.4-7.97-2.95-14-1.09-21.19C409.93,182.94,408.97,183.91,406.99,185.88z M476.78,604.78
		c1.98-3.61,2.82-5.15,3.89-7.11c0-5.39,0-11.81,0-18.38c-1.43,0-2.47,0-3.89,0C476.78,586.96,476.78,594.42,476.78,604.78z
		 M413.61,861.11c3.79,2.99,5.75,5.84,7.92,6.01c7.48,0.59,15.35,2.12,21.69-4.48c-2.98,0.76-5.95,1.52-7.69,1.97
		C428.54,863.49,422.58,862.54,413.61,861.11z M480.16,153.21c0.66-8.61,0.22-8.99-10.21-8.76c-1.14,3.25-2.31,6.58-3.48,9.91
		c0.76-0.43,1.52-0.87,2.27-1.3c1.94,1.94,3.88,3.88,5.5,5.5c2.39-3.55-5.83-7.56-1.34-12.17
		C477.92,145.96,478,150.63,480.16,153.21z M489.19,449.17c0.4-0.52,0.8-1.04,1.2-1.55c-2.78-2.58-5.56-5.15-8.9-8.25
		c-3.36,0.86-7.78-0.77-13.3,1.42C476.11,443.94,482.65,446.55,489.19,449.17z M487.22,579.42c-3.13,9.66-0.55,16.13,2.14,23.82
		c1.05-5.8,1.87-10.36,2.92-16.22C491.43,585.74,489.81,583.31,487.22,579.42z M386.27,576.18c0.56,0.25,1.13,0.49,1.69,0.74
		c2.3-5.3,4.6-10.6,7.78-17.93c-5.51,2.84-8.96,4.63-11.56,5.97C384.99,569.31,385.63,572.75,386.27,576.18z M406.61,636.08
		c-0.72,0.69-1.44,1.38-2.17,2.06c-0.36-1.94-0.73-3.88-0.87-4.59c-3.17,2.64-5.86,4.89-8.73,7.29c5.94,3.82,9.6,4.4,11.77,2.21
		C406.61,640.73,406.61,638.41,406.61,636.08z M416.13,690.91c8.56-0.6,17.02,0.64,25.82-0.88c-0.59-1.86-0.91-2.87-1.44-4.53
		c-1.88,0.98-3.41,1.77-5.62,2.92c-2.6,0-6.08,0.31-9.47-0.09c-3.01-0.35-5.92-1.49-9.3-2.4
		C416.13,687.87,416.13,688.91,416.13,690.91z M357.72,1017.65c6.73,2.57,13.46,4.84,22.83,2.15c-7.8-2.31-13.61-4.04-19.27-5.72
		C359.94,1015.43,358.85,1016.52,357.72,1017.65z M483.25,563.79c-1.52-1.44-2.82-2.68-5.33-5.07c-1.12,2.55-1.91,4.34-2.79,6.35
		c1.19,2.3,3.09,5.97,5.1,9.83c1.43-0.71,2.34-1.17,3.68-1.83c-1.09-2.16-2.03-4.03-3.06-6.08
		C481.52,566.1,482.17,565.23,483.25,563.79z M444.19,201.12c5.35-7.38,5.35-7.38,0-20.25
		C444.19,187.61,444.19,193.51,444.19,201.12z M504.23,998.41c0.11,6.34,5.7,5.87,8.99,9.05c0-3.61,0-6.43,0-9.05
		C509.99,998.41,507.17,998.41,504.23,998.41z M421.99,662.18c-0.76-3.75-1.46-7.16-2.25-11.03c-5.97,3.63-3.23,8.91-3.81,13.98
		C418.75,663.76,420.83,662.75,421.99,662.18z M467.3,631.58c4.12-2.44,6.9-4.08,11.9-7.04c-4.26-0.71-5.92-0.84-7.47-1.3
		c-1.45-0.42-2.79-1.2-4.43-1.93C467.3,624.4,467.3,626.96,467.3,631.58z M264.46,409.99c0.29,1.5,0.49,2.54,0.89,4.67
		c4-1.35,7.56-2.55,11.21-3.78c-0.29-1.52-0.49-2.56-0.86-4.53c-1.95,1.03-3.32,2.03-4.85,2.49
		C268.84,409.44,266.7,409.61,264.46,409.99z M276.6,389.45c-4.14-1.95-7.79-3.67-12.08-5.69c2.49,5.61,2.9,6.06,9.13,9.16
		c0.49,0.24,1.37-0.31,2.07-0.49C275.92,391.74,276.12,391.05,276.6,389.45z M317.11,964.86c2.03,0.84,3.69,1.52,5.74,2.36
		c-0.14-1.61-0.24-2.66-0.32-3.61c-2.92-0.77-5.59-1.48-8.34-2.21c-0.7,1.65-1.58,3.74-2.38,5.62c1.15,1.15,1.97,1.97,2.94,2.94
		C315.5,968.34,316.22,966.78,317.11,964.86z M399.81,170.19c4.5-1.16,7.21-2.46,6.66-7.13c-2.37,0-4.43,0-6.66,0
		C399.81,165.25,399.81,167.04,399.81,170.19z M574.93,408.11c4.86,7.07,8.77,6.19,15.05,4.48
		C584.36,410.92,580.82,409.86,574.93,408.11z M509.74,897.75c-3.29,1.42-5.34,2.28-7.36,3.21c-0.23,0.1-0.26,0.61-0.69,1.72
		c1.06,1.29,2.38,2.89,3.95,4.81C506.94,904.41,508.1,901.64,509.74,897.75z M405.95,871.85c-4.4-2.18-6.98-3.45-7.83-3.87
		c-2.64,1.23-4.24,1.97-5.84,2.72c0.28,0.38,0.57,0.77,0.85,1.15C396.71,871.85,400.28,871.85,405.95,871.85z M385.43,1020.73
		c2.33,1.07,4.33,1.99,8.86,4.08c-2.41-4.49-3.48-6.51-4.79-8.95C388.15,1017.48,387.22,1018.59,385.43,1020.73z M399.84,630.33
		c-0.4-2.8-0.71-4.98-1.21-8.52c-2.79,2.21-4.43,3.53-6.2,4.93C394.71,627.85,396.79,628.86,399.84,630.33z M394.64,608.43
		c-2.76,2.91-4.8,4.78-7.83,8.14c4.13-0.35,6.18-0.52,7.83-0.65C394.64,613.37,394.64,611.59,394.64,608.43z M472.33,609.44
		c0,2.19,0,4.5,0,8.09c2.76-1.98,4.58-3.27,6.58-4.71C476.47,611.56,474.61,610.61,472.33,609.44z M516.72,447.23
		c3.2-1.58,5.79-2.85,10.18-5.02c-4.91,0-7.73,0-11.12,0C516.11,443.98,516.35,445.28,516.72,447.23z M350.59,447.27
		c-2.43,3.09-3.74,4.75-5.83,7.41c2.61,0.58,4.04,0.89,5.83,1.29C350.59,453.18,350.59,451.39,350.59,447.27z M501.48,1012.88
		c5.84,0.93,5.84,0.93,9.98-4.23C507.45,1010.35,504.67,1011.53,501.48,1012.88z M356.62,441.48c0.92,2.94,2.11,7.12,6.26,3.5
		C360.65,443.74,358.63,442.61,356.62,441.48z M339.96,439.16c-0.57,1.45-0.9,1.89-0.79,2.07c1.11,1.78,2.29,3.51,3.46,5.25
		c0.26-0.26,0.61-0.48,0.77-0.8c1.42-2.72-0.94-3.85-2.32-5.39C340.84,440.02,340.57,439.77,339.96,439.16z M364.37,459.21
		c3.04-0.85,7.02-2.05,3.58-6.22C366.66,455.23,365.51,457.22,364.37,459.21z M381.7,992.42c0.28,5.19,0.28,5.19,5.16,6.97
		C384.92,996.77,383.61,994.99,381.7,992.42z M364.98,115.2c-0.25-0.51-0.49-1.02-0.73-1.52c-2.11,0.27-4.21,0.53-6.91,0.87
		c1.74,1.74,2.79,2.79,2.89,2.89C361.82,116.69,363.4,115.94,364.98,115.2z M409.83,658.45c0.75,1.58,1.5,3.16,2.25,4.74
		c0.55-0.3,1.09-0.61,1.64-0.91c-0.28-2.06-0.56-4.12-0.92-6.79C411.03,657.25,409.98,658.3,409.83,658.45z M415.55,874.14
		c-0.07-0.69-0.14-1.37-0.2-2.06c-2.03,0.3-4.06,0.59-6.09,0.88c0.04,0.4,0.08,0.79,0.12,1.18
		C411.43,874.14,413.49,874.14,415.55,874.14z M472.66,925.99c1.27-4.13,0.74-6.13-1.72-4.8
		C471.44,922.58,472.05,924.28,472.66,925.99z M480.47,965.27c-0.39,0-0.78,0-1.16,0c0,1.55,0,3.1,0,4.65c0.39,0,0.78,0,1.16,0
		C480.47,968.38,480.47,966.83,480.47,965.27z M258.09,107.22c0.08,0.67,0.17,1.34,0.25,2.01c1.26-0.3,2.53-0.6,3.79-0.9
		c-0.06-0.37-0.12-0.74-0.18-1.11C260.65,107.22,259.37,107.22,258.09,107.22z M493.08,115.76c0.67-0.08,1.34-0.17,2.01-0.25
		c-0.3-1.26-0.6-2.52-0.9-3.79c-0.37,0.06-0.74,0.12-1.11,0.18C493.08,113.19,493.08,114.48,493.08,115.76z M371.31,442.2
		c-0.67,0.09-1.34,0.17-2.01,0.25c0.3,1.26,0.6,2.52,0.9,3.78c0.37-0.06,0.74-0.12,1.1-0.18
		C371.31,444.77,371.31,443.48,371.31,442.2z M339.54,455.42c0.67-0.08,1.34-0.17,2.01-0.25c-0.3-1.26-0.6-2.53-0.9-3.79
		c-0.37,0.06-0.74,0.12-1.11,0.18C339.54,452.85,339.54,454.13,339.54,455.42z M487.63,607.43c-0.66,0.04-1.33,0.09-1.99,0.13
		c0.28,1.3,0.56,2.59,0.85,3.89c0.38-0.05,0.76-0.1,1.15-0.16C487.63,610,487.63,608.72,487.63,607.43z M359.65,457.72
		c-0.04-0.66-0.09-1.33-0.13-1.99c-1.29,0.29-2.59,0.57-3.89,0.85c0.05,0.38,0.1,0.76,0.15,1.15
		C357.08,457.72,358.37,457.72,359.65,457.72z M376.37,603.91c0-0.26,0-0.52,0-0.78c-0.78,0-1.55,0-2.33,0c0,0.26,0,0.52,0,0.78
		C374.81,603.91,375.59,603.91,376.37,603.91z M408.94,866.79c0-0.26,0-0.52,0-0.78c-0.78,0-1.55,0-2.33,0c0,0.26,0,0.52,0,0.78
		C407.39,866.79,408.16,866.79,408.94,866.79z M602.8,97.52c0.26,0,0.52,0,0.77,0c0-0.77,0-1.55,0-2.33c-0.25,0-0.51,0-0.77,0
		C602.8,95.97,602.8,96.74,602.8,97.52z M377.14,600.03c0.26,0,0.52,0,0.77,0c0-0.77,0-1.55,0-2.33c-0.26,0-0.52,0-0.77,0
		C377.14,598.48,377.14,599.25,377.14,600.03z M465.55,937.36c0.25,0,0.51,0,0.77,0c0-0.77,0-1.55,0-2.33c-0.26,0-0.52,0-0.77,0
		C465.55,935.81,465.55,936.58,465.55,937.36z M491.14,607c0.25,0,0.51,0,0.77,0c0-0.77,0-1.55,0-2.33c-0.26,0-0.52,0-0.77,0
		C491.14,605.45,491.14,606.23,491.14,607z M454.69,974.58c-0.26,0-0.52,0-0.77,0c0,0.78,0,1.55,0,2.33c0.25,0,0.51,0,0.77,0
		C454.69,976.13,454.69,975.36,454.69,974.58z M412.04,644.23c0.25,0,0.51,0,0.77,0c0-0.77,0-1.55,0-2.33c-0.26,0-0.52,0-0.77,0
		C412.04,642.68,412.04,643.45,412.04,644.23z M475.63,634.92c-0.26,0-0.52,0-0.77,0c0,0.78,0,1.55,0,2.33c0.25,0,0.51,0,0.77,0
		C475.63,636.48,475.63,635.7,475.63,634.92z M359.3,469.75c-0.26,0-0.52,0-0.77,0c0,0.78,0,1.55,0,2.33c0.26,0,0.52,0,0.77,0
		C359.3,471.3,359.3,470.52,359.3,469.75z M374.81,451.14c0.26,0,0.52,0,0.77,0c0-0.77,0-1.55,0-2.33c-0.26,0-0.52,0-0.77,0
		C374.81,449.59,374.81,450.36,374.81,451.14z"/>
	<path class="st0" d="M381.42,421.65c-1.69,1.69-2.51,2.51-4.18,4.18c-2.34-4.01-4.55-7.79-7.01-12c-1.96,0.72-4.31,1.47-6.57,2.44
		c-1.95,0.84-3.79,1.93-5.91,3.03c-2.27-2-4.12-3.63-6.03-5.31c-1.47,3.16-2.83,6.07-4.17,8.94c-1.86,0-3.68,0-5.58,0
		c-2.71-9.26,5.58-14.75,6.91-23.7c3.97,3.97,7.29,7.29,10.6,10.6c4.7-3.5,8.81-6.57,13.31-9.92
		C379.28,405.82,377.07,414.92,381.42,421.65z"/>
	<path class="st0" d="M491.13,393.34c-7.47,5.54-14,3.99-21,4.37c-2.4-3.27-5.01-6.82-6.67-9.08c0.68-4.33,1.18-7.49,1.69-10.75
		c2.29-6.05,9.21-4.94,13.19-8.38c5.07,2.87,11.48,2.59,14.75,10.14C492.55,383.41,491.77,388.87,491.13,393.34z M485.48,384.36
		c-2.23-3.27-3.94-5.77-6.07-8.89c-3.13,1.67-5.59,3-7.56,4.05c0,3.29,0,5.57,0,7.63c2.99,4.58,6.99,4.03,10.66,2.98
		C483.71,387.81,484.69,385.91,485.48,384.36z"/>
	<path class="st0" d="M513.09,427.63c-6.77,0-13.25,0-20.38,0c-4.63-7.81-1.19-16.38-2.44-24.1c1.18-1.17,2-2,3.2-3.2
		c4.52,0,9.46,0,14.94,0c0.92,1.3,2.18,3.07,4.27,6.01c-5.23,0.4-9.18,0.7-13.12,1.01c0.01,0.39,0.02,0.77,0.03,1.16
		c2.12,0.4,4.24,0.8,6.71,1.27c0,1.77,0,3.59,0,5.93c-1.84,0.3-3.97,0.65-8.51,1.39c3.12,1.39,4.75,2.13,7.46,3.34
		c0.12-0.06,2.04-1.01,3.91-1.94C512.87,420.12,514.55,422.72,513.09,427.63z"/>
	<path class="st0" d="M438.8,373c0,1.97,0,3.78,0,5.66c-4.48-0.82-8.62-1.58-11.86-2.17c-4.95,3.35-4.28,7.17-3.79,10.74
		c2.46,4.49,6.54,3.34,10.04,3.36c1.44-3.26,2.86-6.47,4.21-9.54c7.57,1.43,6.41,6.41,6.34,11.3c-2.57,1.63-5.35,3.39-8.33,5.28
		c-3.59,0-7.45,0-11.41,0c-3.53-2.54-7.13-5.13-10.24-7.37c-1.26-8.4,2.59-13.86,8.1-18.13C426.62,368.45,430.04,368.99,438.8,373z"
		/>
	<path class="st0" d="M427.65,417.51c-2.6,3.55-4.44,6.05-6.89,9.38c-7.13-7.81-4.11-16.18-4.88-23.41
		c1.35-1.35,2.16-2.17,3.25-3.26c5.42,0,11.11,0,16.82,0c0.8,0.81,1.63,1.63,3.21,3.21c-0.67,4.26,1.79,9.49-2.02,13.98
		c1.67,1.99,3.32,3.97,5.82,6.96c-2.9,0.68-4.53,1.05-6.86,1.6C433.61,423.47,430.99,420.85,427.65,417.51z M433.78,407.67
		c-7.53-0.25-10.82,1.05-10.41,3.29c1.24,1.15,2.52,2.34,4.44,4.13C429.82,412.6,431.28,410.78,433.78,407.67z"/>
	<path class="st0" d="M455.16,425.69c5.18-9.02,8.66-17.82,16.81-24.46c6.5,6.78,8.43,15.63,13.64,22.36
		c0.65,0.85-0.04,2.74-0.11,4.08c-1.54,0.1-2.55,0.49-2.99,0.15c-1.78-1.4-3.38-3.03-5.61-5.09
		C470.2,423.64,463.02,424.62,455.16,425.69z M471.75,415.47c0-0.26,0-0.52,0-0.78c-0.78,0-1.55,0-2.33,0c0,0.26,0,0.52,0,0.78
		C470.2,415.47,470.97,415.47,471.75,415.47z"/>
	<path class="st0" d="M412.26,426.82c-2.78-2.29-4.73-3.89-7.06-5.81c-3.31,0-7.11,0-10.99,0c-2.18,1.64-4.47,3.37-7.84,5.9
		c-0.33-3-1.29-5.21-0.57-6.37c4.4-7.12,9.18-14.02,14.23-21.58c2.75,3.12,6.28,5.28,6.29,7.47
		C406.34,413.6,416.4,416.98,412.26,426.82z M399.87,414.13c-0.15-0.15-0.3-0.3-0.45-0.45c-0.64,0.54-1.27,1.08-1.9,1.62
		c0.25,0.24,0.49,0.49,0.74,0.73c0.54-0.63,1.08-1.27,1.13-2.32c0.15,0.15,0.3,0.3,0.45,0.45c0.64-0.54,1.27-1.08,1.9-1.62
		c-0.25-0.25-0.49-0.49-0.74-0.73C400.47,412.44,399.92,413.07,399.87,414.13z"/>
	<path class="st0" d="M393.17,376.68c4.21,3.03,6.61,4.76,10.29,7.41c-3.57,1.26-6.01,2.12-8.46,2.98c0,0.8,0,1.57,0,3.14
		c4.3,0.23,8.71,0.47,13.53,0.73c0,1.86,0,3.66,0,6.38c-6.38-0.84-13.09-1.72-20.03-2.64c-1.12-6.32-2.26-12.76-3.31-18.67
		c1.77-1.77,2.86-2.86,3.61-3.61c6.02,0,11.7,0,17.58,0c0,1.4,0,2.45,0,4.28C402.61,376.68,398.94,376.68,393.17,376.68z"/>
	<path class="st0" d="M357.7,375.58c1.7-1.7,2.43-2.66,3.38-3.29c0.55-0.36,1.46-0.2,3.14-0.35c0.26,4.39,0.53,8.78,0.8,13.17
		c0.82,0.82,1.64,1.65,2.88,2.88c2.94,0,6.33,0,10.47,0c0.15,2.46,0.27,4.55,0.41,7.01c-6.32,0-12.02,0-17.73,0
		C356.27,389.19,358.11,382.17,357.7,375.58z"/>
	<path class="st0" d="M452.75,424.88c-4.08,2.11-6.58-0.02-8.89-2.83c0-6.04,0-12.14,0-18.78c0.99-1.04,2.25-2.37,3.92-4.12
		c1.8,1.29,3.24,2.32,4.97,3.56C452.75,410.1,452.75,417.54,452.75,424.88z"/>
	<path class="st0" d="M457.38,394.55c-1.23,1.23-2.05,2.05-3.14,3.14c-1.16-1.4-3.12-2.68-3.28-4.16
		c-0.45-4.21-0.01-8.51-0.22-12.77c-0.09-1.72-0.95-3.41-1.63-5.71c1.38-2.79,4.16-3.83,8.27-2.54
		C457.38,379.61,457.38,386.87,457.38,394.55z"/>
	<path class="st0" d="M501.83,1111.52c0.1,2.14,0.13,2.9,0.16,3.64c-7.06,4.01-15.12,2.65-22.53,4.38
		c-7.16,1.66-14.02,3.95-21.55,4.08c-7.82,0.13-15.61,1.45-23.42,2.17c-7.43,0.69-15.14-1.36-23.78,1.88
		c-4.38-3.66-10.43-1.56-16.48,0.06c-2.12-1.06-4.23-2.11-6.26-3.13c0.07-0.96,0.13-1.71,0.26-3.45c5.18,0,10.48,0,15.78,0
		c9.67,0,19.36,0.29,29.02-0.12c4.73-0.2,9.46,1.53,14.37-1.82c3.69-2.51,9.21,1.01,14.11-2.39c3.57-2.48,9.81,1.87,13.91-2.64
		C483.96,1113.31,492.49,1112.46,501.83,1111.52z"/>
	<path class="st0" d="M568.46,1048.22c-5.55,2.83-9.71,4.94-14.23,7.23c-0.7-0.42-1.84-1.1-3.67-2.19c-1.99,1.72-4.17,3.6-5.72,4.94
		c-2.75-2.78-5.13-5.19-7.17-7.25c-4.01,2.06-6.47,3.33-9.21,4.73c-2.95,0-6.33,0-11.81,0c10.73-4.83,19.61-8.82,28.76-12.93
		c1.25,0.6,3.16,1.53,5.15,2.49c0.19,1.73,0.39,3.55,0.6,5.55c0.67-0.13,1.23-0.17,1.74-0.35c3.36-1.23,6.65-2.73,10.09-3.62
		C564.3,1046.48,565.96,1047.52,568.46,1048.22z"/>
	<path class="st0" d="M483.38,1058.33c1.94,0,3.87,0,5.83,0c1.07,1.09,2.16,2.19,3.37,3.41c0,2.93,0,5.99,0,10.26
		c-0.77,0.62-2.14,2.04-3.79,2.95c-2.81,1.55-5.69,3.19-8.76,4.02c-2.42,0.65-5.16,0.13-7.77,0.13c0.17-7.12,4.57-13.78,11.12-17.28
		C483.38,1060.65,483.38,1059.49,483.38,1058.33z"/>
	<path class="st0" d="M399.67,1113.59c0-1.27,0-2.03,0-3.47c1.24-0.19,2.6-0.57,3.98-0.58c9.61-0.05,19.23,0.15,28.84-0.1
		c4.34-0.11,8.7,0.99,13.07-1.98c2.28-1.55,6.47-0.27,10.92-0.27c-2.07,2.17-3.09,3.24-4.08,4.28
		C435.07,1112.35,417.93,1115.99,399.67,1113.59z"/>
	<path class="st0" d="M493.97,1099.99c1.35,1.82,2.65,3.56,4.76,6.4c-14.25,1.7-27.23,3.25-41.3,4.93c1.14-2.41,2.12-4.48,3.14-6.64
		C472.42,1106.12,482.94,1101.83,493.97,1099.99z"/>
	<path class="st0" d="M432.44,1072.29c0-1.87,0-2.91,0-4.65c4.38,0,8.58,0.2,12.75-0.06c3.59-0.22,7.15-0.96,11.85-1.63
		c0.1,0.06,1.3,0.87,1.77,1.19c4.47-0.8,8.32-1.49,12.5-2.24c0.2,1.99,0.31,3.04,0.5,4.82c-6.93-0.55-12.83,3.49-19.84,2.73
		C445.54,1071.74,439,1072.29,432.44,1072.29z"/>
	<path class="st0" d="M554.53,1042.24c-1.27-1.27-2.35-2.35-3.18-3.18c3.42-3.41,6.84-6.83,10.75-10.73c2.34,0,5.67,0,8.81,0
		c1.03,2.14,1.93,3.99,2.86,5.92c-0.66,0.67-1.55,2.24-2.27,2.16C564.87,1035.7,560.79,1042.51,554.53,1042.24z"/>
	<path class="st0" d="M430.11,1080.97c0-1.1,0-2.14,0-3.15c0.73-0.31,1.36-0.8,2.03-0.84c8.12-0.52,16.36,1.16,24.36-2.2
		c3.01-1.26,6.57-0.32,7.87,3.72C453.12,1080.48,441.91,1083.17,430.11,1080.97z"/>
	<path class="st0" d="M462.24,1058.47c0,1.66,0,2.71,0,3.67c-6.7,1.04-13.2,2.04-19.69,3.05c-1.09-1.09-2.18-2.18-3.24-3.24
		C446.45,1057.67,454.21,1058.08,462.24,1058.47z"/>
	<path class="st0" d="M513.07,1046.11c0.3,2.07,0.45,3.12,0.7,4.83c-8.72,0.53-16.36,5.94-27.36,4.73
		C495.4,1048.96,504.98,1050.56,513.07,1046.11z"/>
	<path class="st0" d="M443.13,1058.83c-1.53-1.57-2.6-2.68-3.76-3.87c3.89-6.36,10.1-2.44,15.4-3.89c0.36,1.54,0.61,2.58,1.05,4.44
		c-2.43,0.18-4.63,0.07-6.67,0.57C447.32,1056.53,445.65,1057.64,443.13,1058.83z"/>
	<path class="st0" d="M520.26,1046.7c4.01-6.84,11.1-5.68,16.85-8.32c-0.94,1.69-1.51,4.4-2.88,4.9
		C530,1044.81,525.46,1045.5,520.26,1046.7z"/>
	<path class="st0" d="M562.48,1062.98c-0.78,0.78-1.55,1.55-2.33,2.33c-2.74,0.76-5.47,1.52-9.35,2.59
		c0.57-2.09,0.49-4.25,1.47-4.97c2.77-2.03,5.97-3.48,10.2-5.81C562.48,1060.13,562.48,1061.56,562.48,1062.98z"/>
	<path class="st0" d="M505.96,1041.88c-6.73,6.37-13.53,5.38-20.23,5.88c1.54-1.13,2.94-2.71,4.66-3.28
		c2.39-0.78,5.08,0.56,7.56-1.59C499.24,1041.77,501.95,1042.3,505.96,1041.88z"/>
	<path class="st0" d="M366.28,1103.43c-6.12-1.92-9.47-2.98-12.98-4.08c0-0.98,0-2,0-3.42c2.73,0,5.27,0,8.68,0
		C362.77,1097.3,363.92,1099.33,366.28,1103.43z"/>
	<path class="st0" d="M555.37,1024.92c2.63-3.69,5.37-4.84,9.21-3.01C562.62,1025.63,559.84,1026.73,555.37,1024.92z"/>
	<path class="st0" d="M536.88,1030.73c0,1.55,0,2.29,0,3.83c-1.93,0.2-3.95,0.41-6.52,0.68c-0.16-1.57-0.3-2.85-0.47-4.5
		C532.59,1030.73,534.74,1030.73,536.88,1030.73z"/>
	<path class="st0" d="M501.78,1058.73c0,1.44,0,2.47,0,3.84c-2.28,0-4.35,0-6.56,0c0-1.44,0-2.47,0-3.84
		C497.5,1058.73,499.58,1058.73,501.78,1058.73z"/>
	<path class="st0" d="M536.88,1021.11c0,1.55,0,3.1,0,4.65c-1.36,0-2.71,0-4.65,0c0-1.94,0-3.29,0-4.65
		C533.78,1021.11,535.34,1021.11,536.88,1021.11z"/>
	<path class="st0" d="M363.83,1109.33c-0.91,0-1.92,0-3.35,0c0-1.44,0-2.72,0-4c0.37-0.27,0.74-0.55,1.11-0.82
		C362.33,1106.09,363.07,1107.68,363.83,1109.33z"/>
	<path class="st0" d="M572.3,1044.43c-0.13-1.48-0.25-2.97-0.38-4.45c0.5-0.07,1-0.14,1.5-0.2c0.3,1.52,0.6,3.04,0.89,4.55
		C573.64,1044.37,572.97,1044.4,572.3,1044.43z"/>
	<path class="st0" d="M287.83,1052.38c0.28-1.26,0.45-1.97,0.81-3.61c13.09,5.03,25.85,10.88,40.03,11.96
		c14.1,1.07,27.69,6.73,42.15,4.26c1.41,2.23,2.56,4.04,4.32,6.82c-5.56,0.61-10.42,1.66-14.3-0.35c-2.69-1.39-5.02-1.19-7.55-1.49
		c-11.29-1.33-22.52-2.7-33.42-6.31c-5.51-1.82-11.65-1.73-17.14-3.59C297.7,1058.37,293.15,1055.2,287.83,1052.38z"/>
	<path class="st0" d="M367.06,1056.34c0,1.6,0,2.37,0,3.76c-9.71,2.66-19.04-3.6-28.69-1.77c-8.17-4.3-17.74-3.24-26.13-6.91
		c-8.5-3.73-17.23-6.93-26.52-10.62c0.08-0.72,0.24-2.04,0.46-3.93C312.27,1048.91,339.27,1054.16,367.06,1056.34z"/>
	<path class="st0" d="M299.53,1027.08c0.15-1.26,0.23-2,0.42-3.63c11.18,0.99,20.88,7.16,31.62,9.24c10.8,2.09,21.69,3.78,32.87,5.7
		c0.05,0.64,0.13,1.69,0.21,2.67c-0.82,0.39-1.45,0.76-2.12,0.98c-6.22,1.96-11.67-3.08-17.57-2.18
		c-6.27,0.95-12.18-1.19-17.46-2.93c-7.03-2.3-14.08-5.11-21.08-7.79C304.16,1028.27,301.77,1027.74,299.53,1027.08z"/>
	<path class="st0" d="M362.41,1030.41c-3.93,2.02-7.3,3.18-12.23,0.99c-6.75-2.98-14.37-4.16-21.71-5.57
		c-8.45-1.62-15.75-6.41-24.1-8.26c-1.02-0.23-1.64-2.25-2.44-3.45c2.19,0.26,4.76-0.13,6.52,0.88c9.3,5.33,19.85,5.94,29.9,8.45
		c8.01,2,16.41,2.34,24.04,5.85C362.53,1029.37,362.41,1030.03,362.41,1030.41z"/>
	<path class="st0" d="M330.14,1012.55c-0.38,1.6-0.63,2.65-1.02,4.28c-11.88-4.73-25.43-4.6-35.96-16.42
		C306.73,1004.87,318.38,1008.69,330.14,1012.55z"/>
	<path class="st0" d="M315.93,998.46c-0.09,1.5-0.13,2.26-0.18,3.01c-0.64,0.35-1.61,1.14-1.85,0.96c-3.47-2.58-7.92-1.46-11.51-3.1
		c-3.6-1.64-6.98-3.88-10.2-6.2c-1.89-1.36-3.27-3.41-4.33-5.93c3.81,0.02,5.13,4.57,9.55,4.02c2.61-0.33,5.53,3.03,8.52,4.23
		C309.19,996.76,312.69,997.51,315.93,998.46z"/>
	<path class="st0" d="M283.88,1004.93c2.31,1.19,4.19,2.15,6.47,3.32c-0.21,1.08-0.46,2.37-0.78,3.97
		C285.14,1011.1,282.48,1009.51,283.88,1004.93z"/>
	<path class="st0" d="M303.09,1013.85c-3.3,0-5.43,0-7.77,0c-0.16-1.26-0.3-2.28-0.57-4.39
		C297.71,1011.02,300,1012.22,303.09,1013.85z"/>
	<path class="st0" d="M289.04,1033.43c-1.13-1.8-2.02-3.24-3.09-4.95C288.91,1027.95,291.69,1027.23,289.04,1033.43z"/>
	<path class="st0" d="M443.91,248.74c-0.1,1.37-0.2,2.74-0.34,4.61c-1.63-0.11-2.89-0.19-4.44-0.3c1.41-2.18,2.48-3.83,3.54-5.48
		C443.09,247.97,443.5,248.35,443.91,248.74z"/>
	<path class="st0" d="M444.82,899.96c-10.55,0-19.29,0-28.34,0c-0.25-1.09-0.5-2.13-0.72-3.1c0.72-0.53,1.29-1.31,1.87-1.32
		c7.65-0.08,15.3-0.05,22.71-0.05C441.66,896.8,442.75,897.88,444.82,899.96z"/>
	<path class="st0" d="M485.18,881.38c0.29,1.65,0.4,2.36,0.64,3.69c-5.98,1.53-11.6,5-18.38,2.94c1.37-4.09,4.38-4.13,7.81-4.3
		C478.37,883.57,481.45,882.31,485.18,881.38z"/>
	<path class="st0" d="M469.65,910.96c0-1.04,0-2.09,0-3.03c5.2-0.92,10.16-1.8,15.47-2.74c0.21,0.8,0.49,1.84,1.03,3.9
		C480.26,908.27,475.83,914.16,469.65,910.96z"/>
	<path class="st0" d="M434.88,885.99c-5.28,0-9.4,0-13.82,0c-0.23-1.17-0.44-2.22-0.77-3.89c4.63,0,9.03,0,13.82,0
		C434.26,882.88,434.47,883.93,434.88,885.99z"/>
	<path class="st0" d="M430.1,906.71c0-1.45,0-2.49,0-3.84c4.62,0,9,0,13.51,0c0,1.44,0,2.49,0,3.84
		C438.99,906.71,434.6,906.71,430.1,906.71z"/>
	<path class="st0" d="M482.95,900.5c-5.23,1.18-9.69,6.54-16.57,2.96c1.74-0.66,3.08-1.18,4.43-1.69c-0.31-0.42-0.62-0.85-0.93-1.27
		C474.24,900.5,478.6,900.5,482.95,900.5z"/>
	<path class="st0" d="M415.91,906.52c3.05-5.4,7.16-3.32,11.04-4.33c0.32,1.6,0.54,2.65,0.87,4.33
		C423.67,906.52,419.79,906.52,415.91,906.52z"/>
	<path class="st0" d="M434.85,888.36c-0.48,2.33-0.75,3.62-1.14,5.46c-3.12-1.46-5.64-2.65-9.99-4.69
		C428.34,888.81,431.22,888.61,434.85,888.36z"/>
	<path class="st0" d="M394.95,887.98c-3.71,0-7.35,0-10.99,0c-0.3-0.29-0.59-0.58-0.89-0.87c1.92-0.39,3.84-0.78,5.76-1.17
		c-0.67-0.7-1.33-1.39-1.99-2.09c0.39,0,1.11-0.03,1.11,0C388.4,888.65,393.71,884.08,394.95,887.98z"/>
	<path class="st0" d="M437.25,885.75c0-1.29,0-2.57,0-3.86c0.38-0.05,0.76-0.1,1.15-0.15c0.28,1.29,0.57,2.59,0.85,3.88
		C438.58,885.67,437.91,885.71,437.25,885.75z"/>
	<path class="st0" d="M447.71,888.5c0,0.78,0,1.55,0,2.33c-0.26,0-0.52,0-0.77,0c0-0.77,0-1.55,0-2.33
		C447.19,888.5,447.45,888.5,447.71,888.5z"/>
	<path class="st0" d="M401.91,991.45c3.14,0.58,6.31,1.59,9.5,1.66c9.91,0.22,19.84,0.08,29.88,0.08c0,1.84,0,2.89,0,4.65
		c-4.73,0-9.3,0.32-13.79-0.09c-4.31-0.4-9.17,2.04-12.87-2.1c-4.11,3.59-7.81-2.77-12.26,0.8
		C402.12,993.77,401.98,992.33,401.91,991.45z"/>
	<path class="st0" d="M436.85,974.58c0,1.91,0,2.68,0,3.45c-0.59,0.4-1.18,1.15-1.77,1.15c-9.16,0.07-18.32,0.05-27.72,0.05
		c-0.33-1.12-0.63-2.14-0.9-3.07c0.66-0.62,1.17-1.51,1.69-1.52C417.71,974.56,427.28,974.58,436.85,974.58z"/>
	<path class="st0" d="M441.57,963.03c-2.67,0.97-5.33,1.94-7.67,2.79c-1.65-1.64-2.72-2.73-4.07-4.08c1.34-1.16,2.53-2.99,4.03-3.3
		C437.46,957.69,440.4,958.99,441.57,963.03z"/>
	<path class="st0" d="M426.94,932.7c-1.31,0-2.07,0-3.38,0c-0.25-1.18-0.51-2.46-0.85-4.08c1.51-0.31,2.55-0.52,4.23-0.86
		C426.94,929.6,426.94,931.15,426.94,932.7z"/>
	<path class="st0" d="M419.79,967.6c0,0.78,0,1.55,0,2.33c-0.26,0-0.52,0-0.77,0c0-0.77,0-1.55,0-2.33
		C419.27,967.6,419.53,967.6,419.79,967.6z"/>
	<path class="st0" d="M388.62,156.26c-0.37-1.96-0.57-2.99-0.86-4.52c1.41-0.3,2.69-0.57,6.6-1.39
		C391.51,153.28,390.35,154.48,388.62,156.26z"/>
	<path class="st0" d="M397.3,37.03c0.78-0.77,1.55-1.55,2.33-2.33c0.78-0.77,1.55-1.55,2.33-2.33c6.18,0.18,9.88-5.39,15.86-6.07
		c1.88,2.61,5.04,11.07,5.06,14.39c0.04,6.53,0.01,13.06,0.01,19.59c-10.61,0-21.22,0-32.97,0c0.97-5.82,1.84-11.05,2.72-16.28
		C396.32,43.1,397.68,40.64,397.3,37.03z"/>
	<path class="st0" d="M366.64,902.57c0.94,1.25,1.78,2.38,2.61,3.51c-0.82,0.82-1.64,1.65-2.57,2.58
		c-5.28-1.48-10.62-2.98-18.11-5.07c-0.44-0.58-2.24-2.96-3.95-5.22c0.24-0.06,1.34-0.67,2.3-0.49c3.19,0.6,7.2,0.54,9.3,2.47
		C359.77,903.59,363.51,901.69,366.64,902.57z"/>
	<path class="st0" d="M432.2,1023.64c0-2.06,0-2.81,0-3.55c1.99-2.42,3.86-2.01,10.05,2.7
		C438.36,1023.12,435.29,1023.38,432.2,1023.64z"/>
	<path class="st0" d="M438.85,1028.27c2.14,0,3.15,0,3.82,0c-0.82,1.24-1.76,2.66-2.99,4.52
		C439.42,1031.33,439.23,1030.3,438.85,1028.27z"/>
	<path class="st0" d="M446.94,1039.72c0-0.77,0-1.55,0-2.33c0.25,0,0.51,0,0.77,0c0,0.78,0,1.55,0,2.33
		C447.45,1039.72,447.19,1039.72,446.94,1039.72z"/>
	<path class="st0" d="M508.97,1021.3c0,0.97,0,2.13,0,3.51c-2.85,0.89-5.77,1.79-8.96,2.78c-0.1-1.11-0.2-2.15-0.29-3.16
		C502.94,1023.34,505.98,1022.31,508.97,1021.3z"/>
	<path class="st0" d="M479.83,933.1c-2.95-0.84-4.36-1.24-5.76-1.64c1.08-0.36,2.15-0.85,3.26-1.01
		C477.67,930.41,478.15,931.27,479.83,933.1z"/>
</g>
</svg>
